<svg id="Capa_1" data-name="Capa 1" xmlns="http://www.w3.org/2000/svg" viewBox="0 0 91.04 88.622"><defs><style>.cls-1{fill:#fff;}</style></defs><title>acelera tu rendimiento</title><path class="cls-1" d="M44.387,64.379c-1.727,0-3.454,0-5.18,0-1.99-.007-3.179-.961-2.989-3,.411-4.393-1.7-7.577-4.505-10.641-6.649-7.259-6.8-17.071-.545-24.534,5.383-6.426,15.43-7.743,23.09-3.026,8.5,5.235,10.748,17.543,4.647,25.59-1.207,1.592-2.812,2.959-3.684,4.7A22.817,22.817,0,0,0,52.908,60.5c-.424,3.181-.727,3.819-3.886,3.865-1.545.023-3.09,0-4.635,0Zm3.472-5.086c.047-4.226,2.067-7.268,4.4-10.258,1.764-2.263,3.69-4.615,4.641-7.253,2.071-5.742-.789-12.046-6.246-15.016a12.716,12.716,0,0,0-16.187,3.245,12.586,12.586,0,0,0-.126,16.062c3.153,3.964,6.861,7.595,6.791,13.22Z"/><path class="cls-1" d="M44.7,68.456a44.618,44.618,0,0,1-5.175-.064c-.71-.084-1.336-.882-2-1.356.633-.511,1.248-1.436,1.9-1.465,3.358-.149,6.729-.146,10.087,0,.673.029,1.309.909,1.963,1.4-.713.507-1.377,1.335-2.149,1.453a30.742,30.742,0,0,1-4.627.069Z"/><path class="cls-1" d="M44.464,69.749a33.852,33.852,0,0,1,4.9.071c.764.113,1.415.99,2.117,1.52-.67.43-1.326,1.2-2.012,1.231-3.267.13-6.546.147-9.811-.012-.732-.035-1.422-.939-2.131-1.444a7.424,7.424,0,0,1,2.312-1.292,33.982,33.982,0,0,1,4.628-.06Z"/><path class="cls-1" d="M30.467,21.64c-.221.324-.438,1-.8,1.1a2.546,2.546,0,0,1-1.975-.148,42.413,42.413,0,0,1-4.552-4.579,2.274,2.274,0,0,1,.158-2.09,1.878,1.878,0,0,1,1.814-.344c1.8,1.607,3.463,3.371,5.144,5.109C30.408,20.848,30.374,21.194,30.467,21.64Z"/><path class="cls-1" d="M66.83,17.485c-2.167,1.9-4.206,3.742-6.346,5.46-.208.168-1.339-.319-1.515-.728a2.265,2.265,0,0,1,.128-1.973,43.57,43.57,0,0,1,4.411-4.426,2.326,2.326,0,0,1,1.962-.187C65.932,15.8,66.181,16.553,66.83,17.485Z"/><path class="cls-1" d="M62.158,52.736a4.03,4.03,0,0,1,1.183.607,43.784,43.784,0,0,1,4.178,4.277,2.474,2.474,0,0,1-.121,2.293,2.167,2.167,0,0,1-2.087.017,35.725,35.725,0,0,1-4.444-4.391C59.809,54.281,60.439,52.856,62.158,52.736Z"/><path class="cls-1" d="M29.364,52.826a13.349,13.349,0,0,1-1.179,2.193,36.373,36.373,0,0,1-4.061,4c-.568.438-1.715.127-2.6.158.069-.8-.158-1.848.263-2.364a23.642,23.642,0,0,1,4.227-4.2C26.611,52.178,27.907,52.7,29.364,52.826Z"/><path class="cls-1" d="M70.585,35.883a12.049,12.049,0,0,1,2.978.065c.621.164,1.582,1.051,1.5,1.419-.152.7-.894,1.709-1.483,1.777a28.469,28.469,0,0,1-5.974.027c-.67-.066-1.261-.95-1.888-1.461.623-.609,1.15-1.5,1.895-1.755A9.529,9.529,0,0,1,70.585,35.883Z"/><path class="cls-1" d="M18.8,35.888a7.742,7.742,0,0,1,2.435.052,9.3,9.3,0,0,1,2.136,1.48c-.637.611-1.217,1.657-1.922,1.75a23.989,23.989,0,0,1-5.706.013c-.655-.071-1.218-.983-1.822-1.51.626-.594,1.161-1.465,1.9-1.711A9.951,9.951,0,0,1,18.8,35.888Z"/><path class="cls-1" d="M42.86,11.522a9.093,9.093,0,0,1,.063-2.7c.227-.7,1-1.221,1.526-1.821.595.568,1.64,1.09,1.7,1.713a32.453,32.453,0,0,1-.009,6.241c-.05.549-1.128,1.509-1.507,1.41a2.716,2.716,0,0,1-1.683-1.6,12.375,12.375,0,0,1-.074-3.244Z"/><path class="cls-1" d="M44.8,73.941c.544,0,1.212-.2,1.6.046a7.759,7.759,0,0,1,1.467,1.592c-1.146.443-2.286,1.208-3.441,1.233-1.05.023-2.117-.761-3.177-1.189.456-.542.814-1.3,1.4-1.565A5.649,5.649,0,0,1,44.8,74Z"/></svg>