<svg id="Capa_1" data-name="Capa 1" xmlns="http://www.w3.org/2000/svg" viewBox="0 0 336.955 363.994"><defs><style>.cls-1{fill:#f5f5f5;}.cls-2{fill:#e0e0e0;}.cls-3{fill:#d67360;}.cls-4{fill:#263238;}.cls-5{fill:#242d41;}.cls-6{fill:#fafafa;}.cls-7{fill:#ebebeb;}.cls-8{fill:#eb996e;}.cls-9{fill:#ffbe9d;}.cls-10{fill:#818084;}.cls-11{opacity:0.2;}.cls-12{fill:#455a64;}.cls-13{fill:#e8505b;}.cls-14{opacity:0.3;}.cls-15{opacity:0.7;}</style></defs><title>comunicate imagen</title><path class="cls-1" d="M7.1,166.788V206.41a12.98,12.98,0,0,0,12.98,12.98H162.151a12.98,12.98,0,0,0,12.981-12.98V172.931l17.687-18.583-172.7-.54A12.98,12.98,0,0,0,7.1,166.788Z"/><polygon class="cls-2" points="154.19 177.813 25.269 177.217 25.283 173.255 154.203 173.85 154.19 177.813"/><polygon class="cls-2" points="154.19 190.849 25.269 190.254 25.283 186.291 154.203 186.887 154.19 190.849"/><rect class="cls-2" x="126.711" y="175.943" width="3.963" height="51.01" transform="translate(-73.386 329.149) rotate(-89.718)"/><path class="cls-1" d="M138.743,303.7v39.622a12.98,12.98,0,0,0,12.98,12.98H293.794a12.98,12.98,0,0,0,12.981-12.98V309.838l17.687-18.583-172.7-.54A12.98,12.98,0,0,0,138.743,303.7Z"/><polygon class="cls-2" points="286.45 313.691 157.529 313.095 157.543 309.133 286.463 309.728 286.45 313.691"/><polygon class="cls-2" points="286.45 326.727 157.529 326.131 157.543 322.169 286.463 322.765 286.45 326.727"/><rect class="cls-2" x="258.971" y="311.821" width="3.963" height="51.01" transform="translate(-77.654 596.617) rotate(-89.718)"/><path class="cls-1" d="M83.038,17.533h83.8a7.51,7.51,0,0,1,7.51,7.51V66.029a7.51,7.51,0,0,1-7.51,7.51H95.728a7.51,7.51,0,0,1-7.511-7.51V22.711Z"/><path class="cls-2" d="M131.616,57.378V83.657a8.609,8.609,0,0,1-8.609,8.609H28.779a8.61,8.61,0,0,1-8.61-8.609v-22.2L8.438,49.127l114.542-.358A8.609,8.609,0,0,1,131.616,57.378Z"/><polygon class="cls-1" points="34.059 64.69 119.565 64.295 119.556 61.667 34.051 62.062 34.059 64.69"/><polygon class="cls-1" points="34.059 73.336 119.565 72.941 119.556 70.313 34.051 70.708 34.059 73.336"/><rect class="cls-1" x="34.054" y="79.053" width="33.833" height="2.628" transform="translate(-0.395 0.252) rotate(-0.282)"/><path class="cls-2" d="M310.12,179.239v26.279a8.609,8.609,0,0,1-8.609,8.61H207.283a8.609,8.609,0,0,1-8.609-8.61v-22.2l-11.732-12.325,114.542-.358A8.608,8.608,0,0,1,310.12,179.239Z"/><polygon class="cls-1" points="212.564 186.552 298.07 186.157 298.061 183.529 212.555 183.924 212.564 186.552"/><polygon class="cls-1" points="212.564 195.198 298.07 194.803 298.061 192.175 212.555 192.57 212.564 195.198"/><rect class="cls-1" x="212.558" y="200.914" width="33.833" height="2.628" transform="translate(-0.993 1.132) rotate(-0.282)"/><path class="cls-3" d="M229.4,309.7c-14.083-13.714-14.315-34.927-10.65-53.361.611-3.077.8-6.395,2.721-8.869s5.655-3.767,8.212-2.009c2.121,1.458,2.685,4.295,3.609,6.716a18.336,18.336,0,0,0,6.122,8.119c1.8,1.345,4.138,2.37,6.259,1.615,2.91-1.035,3.829-4.671,4.314-7.752q1.353-8.615,2.709-17.225a29.061,29.061,0,0,1,2.426-8.989c1.435-2.764,3.994-5.131,7.056-5.472s6.406,1.94,6.531,5.054a28.788,28.788,0,0,1-.54,3.846c-.123,1.292.24,2.8,1.395,3.357,1.17.562,2.544-.109,3.611-.859,3.686-2.587,6.5-6.237,9.163-9.888s5.289-7.407,8.726-10.324,7.863-4.95,12.311-4.478,8.7,3.961,9.105,8.47-2.845,8.509-6.175,11.57a69.6,69.6,0,0,1-16.535,11.293,5.721,5.721,0,0,0-2.814,2.181c-1,1.942.606,4.3,2.521,5.3,2.169,1.14,4.7,1.309,7.051,1.984s4.779,2.16,5.316,4.576c.746,3.352-2.425,6.219-5.367,7.954a59.629,59.629,0,0,1-19.063,7.2c-2.4.457-4.9.794-6.987,2.086s-3.64,3.877-2.892,6.225,3.465,3.508,5.909,3.456,4.776-.991,7.176-1.474c4.49-.9,9.9.282,12.015,4.381a9.868,9.868,0,0,1-.374,8.782,22.737,22.737,0,0,1-5.91,6.842,59.961,59.961,0,0,1-28.175,13.62c-10.368,1.8-19.609,1.228-28.776-3.934"/><path class="cls-4" d="M226.909,323.4a136.9,136.9,0,0,1,9.181-24.541,279.317,279.317,0,0,1,15.807-27.9l4.52-7.1c1.488-2.326,2.964-4.634,4.548-6.8a139.418,139.418,0,0,1,9.811-11.935c3.3-3.646,6.573-6.985,9.652-10.084s6.018-5.924,8.8-8.39a110.821,110.821,0,0,1,13.98-10.645c1.743-1.123,3.123-1.95,4.066-2.5l1.077-.617a2.3,2.3,0,0,1,.376-.192,2.194,2.194,0,0,1-.346.244l-1.048.665c-.922.58-2.283,1.437-4.005,2.587A117.209,117.209,0,0,0,289.5,226.959c-2.757,2.478-5.666,5.318-8.733,8.423s-6.313,6.458-9.6,10.1a140.938,140.938,0,0,0-9.746,11.91c-1.572,2.158-3.032,4.446-4.523,6.78s-2.99,4.7-4.515,7.1a286.572,286.572,0,0,0-15.816,27.82,139.3,139.3,0,0,0-9.264,24.413"/><path class="cls-4" d="M261.13,257.066a6.381,6.381,0,0,1-.086-1.362c-.022-.878-.013-2.147.022-3.715.067-3.135.306-7.462.589-12.232s.46-9.089.479-12.217c.013-1.564.012-2.83,0-3.7a6.244,6.244,0,0,1,.047-1.364,6.2,6.2,0,0,1,.176,1.353c.081.874.145,2.143.182,3.711.086,3.138-.028,7.477-.311,12.253-.291,4.706-.554,8.963-.755,12.216-.082,1.47-.15,2.709-.2,3.7A6.226,6.226,0,0,1,261.13,257.066Z"/><path class="cls-4" d="M301.909,256.149a8.8,8.8,0,0,1-1.61-.069c-1.03-.076-2.52-.194-4.365-.28-3.688-.2-8.792-.3-14.428-.168s-10.735.493-14.414.852c-1.841.166-3.328.341-4.356.455a8.671,8.671,0,0,1-1.606.127,8.465,8.465,0,0,1,1.576-.35c1.021-.183,2.5-.42,4.345-.64,3.678-.464,8.789-.879,14.443-1.025a141.455,141.455,0,0,1,14.468.339c1.848.14,3.337.319,4.363.466A8.446,8.446,0,0,1,301.909,256.149Z"/><path class="cls-4" d="M236.7,298.213a2.024,2.024,0,0,1-.193-.527c-.119-.417-.265-.926-.442-1.543-.378-1.34-.874-3.295-1.456-5.718-1.167-4.846-2.568-11.589-4.014-19.052s-2.783-14.213-3.847-19.075c-.525-2.365-.957-4.311-1.277-5.757-.136-.627-.247-1.144-.339-1.568a2.046,2.046,0,0,1-.08-.558,2.115,2.115,0,0,1,.192.529c.12.416.266.924.443,1.541.378,1.341.874,3.295,1.456,5.718,1.167,4.846,2.568,11.59,4.014,19.055s2.783,14.21,3.847,19.074c.525,2.364.956,4.31,1.277,5.755.136.627.247,1.145.339,1.568A2.106,2.106,0,0,1,236.7,298.213Z"/><path class="cls-4" d="M292.049,289.875a2.147,2.147,0,0,1-.557.13l-1.61.261-5.93.9c-5.006.764-11.908,1.9-19.534,3.16s-14.548,2.336-19.571,3c-2.512.331-4.547.578-5.956.72l-1.624.154a2.09,2.09,0,0,1-.571.014,2.167,2.167,0,0,1,.557-.131l1.611-.261,5.928-.9c5.006-.762,11.909-1.9,19.537-3.161s14.545-2.334,19.568-2.994c2.512-.331,4.547-.578,5.957-.72l1.624-.154A2.092,2.092,0,0,1,292.049,289.875Z"/><path class="cls-5" d="M89.482,122.668a9.258,9.258,0,0,1-3.183-8.733,12.293,12.293,0,0,1,5.292-7.89,5.178,5.178,0,0,1,4.222-1.1,3.957,3.957,0,0,1,2.562,3.088,8.034,8.034,0,0,1-.482,4.142c-1.578,4.558-3.941,8.679-8.411,10.493"/><path class="cls-5" d="M85.265,130.454a21.659,21.659,0,0,0-19.142-5.011c-1.7.394-3.617,1.294-3.9,3.018s1.262,3.191,2.776,4.069a18.5,18.5,0,0,0,20.464-1.647"/><path class="cls-5" d="M60.847,94.407a10.853,10.853,0,0,1,8.374,1.441,19.157,19.157,0,0,1,5.989,6.257c3.014,4.762,4.076,11.161,4.21,16.8-6.254-.253-11.6-5.168-14.152-7.832-4.037-4.21-8.776-14.27-4.421-16.661"/><path class="cls-4" d="M94.723,138.961a22.3,22.3,0,0,1-1.561-2.357,39.776,39.776,0,0,1-3.522-10.041,19.918,19.918,0,0,1,.781-10.592,13.055,13.055,0,0,1,1.513-2.87,3.646,3.646,0,0,1,.772-.9,27.723,27.723,0,0,0-1.865,3.925,20.9,20.9,0,0,0-.58,10.327,46.054,46.054,0,0,0,3.307,9.967"/><path class="cls-4" d="M94.781,139.037c-.836-1.08-1.933-2.494-3.256-4.2-2.741-3.553-6.538-8.45-10.8-13.806s-8.193-10.146-11.044-13.611l-3.367-4.112a11.6,11.6,0,0,1-1.177-1.558,11.525,11.525,0,0,1,1.364,1.4c.848.926,2.052,2.287,3.522,3.984,2.94,3.393,6.925,8.148,11.2,13.506s8.016,10.307,10.667,13.93c1.326,1.812,2.383,3.289,3.1,4.323"/><path class="cls-4" d="M70.027,129.143a3.916,3.916,0,0,1,1.085-.331,9.025,9.025,0,0,1,1.307-.25,15.273,15.273,0,0,1,1.755-.188,22.816,22.816,0,0,1,4.594.174A24.369,24.369,0,0,1,89.2,132.607a22.788,22.788,0,0,1,3.505,2.976,15.378,15.378,0,0,1,1.166,1.324,9.181,9.181,0,0,1,.8,1.067c.406.608.348.892.312.917a36.338,36.338,0,0,0-2.588-2.992,25.46,25.46,0,0,0-3.515-2.81,25.722,25.722,0,0,0-10.2-3.965,25.4,25.4,0,0,0-4.489-.3C71.622,128.884,70.052,129.264,70.027,129.143Z"/><path class="cls-4" d="M209.561,341.375l-96.069-.444a20.927,20.927,0,0,1-20.83-21.015L93.68,79.07A20.928,20.928,0,0,1,114.7,58.231l96.068.444A20.926,20.926,0,0,1,231.6,79.69l-1.018,240.847A20.926,20.926,0,0,1,209.561,341.375Z"/><path class="cls-6" d="M210.635,66.987,192.009,66.9a4.627,4.627,0,0,0-4.542,4.707l-.015,3.379a4.626,4.626,0,0,1-4.542,4.707L146.6,79.527a4.632,4.632,0,0,1-4.5-4.749l.015-3.379a4.632,4.632,0,0,0-4.5-4.749l-6.55-.031-16.3-.075a14.656,14.656,0,0,0-14.723,14.594l-.994,235.084A14.655,14.655,0,0,0,113.63,330.94l95.876.443a14.657,14.657,0,0,0,14.724-14.594l.993-235.084A14.657,14.657,0,0,0,210.635,66.987Z"/><path class="cls-5" d="M156.375,308.876a2,2,0,1,1-1.971-1.709A1.856,1.856,0,0,1,156.375,308.876Z"/><path class="cls-5" d="M162.5,308.9a2,2,0,1,1-1.971-1.709A1.853,1.853,0,0,1,162.5,308.9Z"/><path class="cls-5" d="M168.634,308.932a2,2,0,1,1-1.971-1.709A1.853,1.853,0,0,1,168.634,308.932Z"/><path class="cls-7" d="M128.691,180.317c1.562.223,95.806,18.707,95.806,18.707V180.317Z"/><path class="cls-7" d="M99.041,299.088s102.52-14.5,101.627-14.058-101.627,0-101.627,0Z"/><path class="cls-4" d="M218.1,24.616c.119,0,.216,5.183.216,11.575s-.1,11.577-.216,11.577-.217-5.182-.217-11.577S217.979,24.616,218.1,24.616Z"/><path class="cls-4" d="M259.122,51.257c.048.11-4.655,2.291-10.5,4.872s-10.63,4.586-10.678,4.476,4.653-2.29,10.5-4.872S259.074,51.148,259.122,51.257Z"/><path class="cls-4" d="M258.085,10.857a2.11,2.11,0,0,1-.222.443l-.711,1.227c-.622,1.063-1.552,2.582-2.714,4.452-2.328,3.737-5.681,8.815-9.477,14.354s-7.185,10.585-9.579,14.277l-2.827,4.376-.781,1.184a2.091,2.091,0,0,1-.3.4,2.227,2.227,0,0,1,.223-.443l.711-1.227c.621-1.063,1.551-2.582,2.713-4.452,2.329-3.737,5.682-8.815,9.479-14.356s7.184-10.583,9.577-14.275l2.828-4.376.78-1.184A2.2,2.2,0,0,1,258.085,10.857Z"/><path class="cls-3" d="M315.6,108.779H128.08a7.333,7.333,0,0,0-7.333,7.333v58.166a7.333,7.333,0,0,0,7.333,7.333h13.97c1.125,6.074,2.442,13.738,2.442,13.738l12.644-13.738H315.6a7.333,7.333,0,0,0,7.333-7.333V116.112A7.333,7.333,0,0,0,315.6,108.779Z"/><path class="cls-1" d="M238.23,140.33c0,.12-22.318.217-49.842.217s-49.847-.1-49.847-.217,22.313-.216,49.847-.216S238.23,140.211,238.23,140.33Z"/><path class="cls-1" d="M238.23,131.389c0,.12-22.318.217-49.842.217s-49.847-.1-49.847-.217,22.313-.216,49.847-.216S238.23,131.27,238.23,131.389Z"/><path class="cls-1" d="M238.23,149.173c0,.119-22.318.216-49.842.216s-49.847-.1-49.847-.216,22.313-.217,49.847-.217S238.23,149.053,238.23,149.173Z"/><path class="cls-1" d="M203.839,158.332c0,.12-14.619.217-32.648.217s-32.65-.1-32.65-.217,14.615-.216,32.65-.216S203.839,158.213,203.839,158.332Z"/><path class="cls-5" d="M230.871,213.351H41.817a5.131,5.131,0,0,0-5.131,5.131V280.02a5.131,5.131,0,0,0,5.131,5.131H179.122l12.5,13.581s1.311-7.634,2.415-13.581h36.834A5.131,5.131,0,0,0,236,280.02V218.482A5.131,5.131,0,0,0,230.871,213.351Z"/><path class="cls-1" d="M223.455,245.084c0,.12-22.318.217-49.842.217s-49.847-.1-49.847-.217,22.313-.216,49.847-.216S223.455,244.965,223.455,245.084Z"/><path class="cls-1" d="M223.455,236.144c0,.119-22.318.216-49.842.216s-49.847-.1-49.847-.216,22.313-.217,49.847-.217S223.455,236.024,223.455,236.144Z"/><path class="cls-1" d="M223.455,253.927c0,.12-22.318.217-49.842.217s-49.847-.1-49.847-.217,22.313-.217,49.847-.217S223.455,253.807,223.455,253.927Z"/><path class="cls-1" d="M189.064,263.086c0,.12-14.619.217-32.648.217s-32.65-.1-32.65-.217,14.615-.216,32.65-.216S189.064,262.967,189.064,263.086Z"/><path class="cls-4" d="M268.457,84.108c.111-1.528-1.252-3.637-2.516-4.849a4.977,4.977,0,0,1-1.388-5.3c.509-1.888,1.707-1.747,2.18-2.857a8.368,8.368,0,0,0,.275-2.65,5.523,5.523,0,0,1,6.585-4.691A7.649,7.649,0,0,1,287.7,62.293a5.883,5.883,0,0,1,8.58,4.775,4.283,4.283,0,0,1,5.569.841,5.277,5.277,0,0,1,.4,5.815,6.917,6.917,0,0,1-5,3.293,10.161,10.161,0,0,1-6-1.091,19.443,19.443,0,0,1-4.924-3.719"/><ellipse class="cls-2" cx="282.056" cy="144.525" rx="36.007" ry="35.163"/><path class="cls-8" d="M318.21,144.555l-3.985-10.22-14.284,8.974,12.727,19.627S317.846,156.211,318.21,144.555Z"/><path class="cls-9" d="M278.777,122.428h0a9.581,9.581,0,0,0,9.622-9.06c.211-4.232.388-8.307.388-8.307s7.858-.57,8.582-8.251.825-25.446.825-25.446h0a27.262,27.262,0,0,0-27.371,1.188l-.747.48-.908,39.753A9.582,9.582,0,0,0,278.777,122.428Z"/><path class="cls-4" d="M283.286,83.18A1.118,1.118,0,0,1,284,84.6a1.133,1.133,0,0,1-1.428.711,1.118,1.118,0,0,1-.717-1.416A1.131,1.131,0,0,1,283.286,83.18Z"/><path class="cls-4" d="M285.439,83.58c-.13.126-.858-.5-1.927-.57-1.069-.084-1.88.433-1.99.29-.054-.064.082-.3.436-.533a2.661,2.661,0,0,1,3.126.224C285.4,83.274,285.5,83.524,285.439,83.58Z"/><path class="cls-4" d="M295.013,83.18a1.118,1.118,0,0,1,.717,1.416,1.133,1.133,0,0,1-1.428.711,1.119,1.119,0,0,1-.718-1.416A1.132,1.132,0,0,1,295.013,83.18Z"/><path class="cls-4" d="M297.31,83.6c-.13.126-.858-.5-1.928-.569-1.069-.085-1.879.433-1.989.29-.055-.064.081-.3.435-.533a2.664,2.664,0,0,1,3.127.223C297.272,83.3,297.372,83.548,297.31,83.6Z"/><path class="cls-4" d="M289.239,91.909A5.27,5.27,0,0,1,291,91.686c.282-.008.506-.053.538-.2a1.5,1.5,0,0,0-.135-.809c-.217-.723-.438-1.454-.669-2.221-.916-3.16-1.528-5.758-1.366-5.8s1.036,2.478,1.952,5.638c.215.77.421,1.506.623,2.233A1.76,1.76,0,0,1,292,91.687a.735.735,0,0,1-.518.4,1.786,1.786,0,0,1-.482.023A5.2,5.2,0,0,1,289.239,91.909Z"/><path class="cls-8" d="M288.809,104.951a18.223,18.223,0,0,1-9.882-3.665s1.938,5.726,9.737,5.658Z"/><path class="cls-9" d="M269.888,84.315a1.168,1.168,0,0,0-1.1-1.187c-1.448-.068-3.83.456-4.13,4.416-.428,5.657,5.1,4.351,5.118,4.19C269.794,91.607,269.86,86.516,269.888,84.315Z"/><path class="cls-8" d="M268.561,89.484c-.024-.02-.1.061-.279.125a1.007,1.007,0,0,1-.744-.04,2.441,2.441,0,0,1-.973-2.273,3.258,3.258,0,0,1,.385-1.39,1.151,1.151,0,0,1,.806-.7.509.509,0,0,1,.566.314c.064.164.02.274.049.286s.13-.085.1-.323a.634.634,0,0,0-.2-.371.76.76,0,0,0-.539-.185,1.4,1.4,0,0,0-1.105.8,3.316,3.316,0,0,0-.464,1.551,2.56,2.56,0,0,0,1.265,2.551,1.074,1.074,0,0,0,.921-.082C268.54,89.62,268.58,89.5,268.561,89.484Z"/><path class="cls-4" d="M280.376,80.567c.282.363,1.266.193,2.543.138,1.276-.1,2.274-.053,2.506-.448.264-.41-.97-1.353-2.615-1.218C281.162,79.106,280.06,80.192,280.376,80.567Z"/><path class="cls-4" d="M292.832,80.191c.154.493,1.091.642,2.13.635s1.973-.194,2.116-.691-.8-1.178-2.138-1.159S292.674,79.711,292.832,80.191Z"/><path class="cls-4" d="M299.286,73.8s-4.662,2.257-10.728-.771c-3.98-1.987-8.62-2.958-9.643-2.157s-1.239,4.9-5.183,6.1c0,0,.271,7.826-2.849,7.547s-1.17-12.4-1.17-12.4l7.633-3.728,8.33-1.574,7.849,1.107,6.072,1.663Z"/><path class="cls-10" d="M247.046,119.081c8.157-8.389,22.514-7.474,22.514-7.474l11.9,8.52,6.748-7.857a43.767,43.767,0,0,1,13.737,4.251l.458.142-.006.094c5.22,2.835,12.612,9.634,19.654,16.232l-8.427,7.82-9.326,8.279a.248.248,0,0,1,.016.165c-.1.5,1.3,11.891,2.724,20.545a35.121,35.121,0,0,1-31.342,9.47c-3.815-.669-5.661-1.6-9.194-2.526a12.792,12.792,0,0,1-9.475-11.275h0c-.636-7.254-1.12-16.236-1.12-16.236"/><path class="cls-4" d="M295.671,113.733a9.092,9.092,0,0,1,.513,1.339c.3.87.72,2.138,1.21,3.711.983,3.147,2.234,7.529,3.417,12.42s2.066,9.363,2.628,12.612c.282,1.624.491,2.941.617,3.855a9.262,9.262,0,0,1,.155,1.424,8.9,8.9,0,0,1-.321-1.4c-.192-.975-.445-2.266-.752-3.827-.638-3.23-1.57-7.682-2.748-12.566s-2.383-9.268-3.289-12.434c-.44-1.53-.8-2.793-1.078-3.748A9.056,9.056,0,0,1,295.671,113.733Z"/><path class="cls-4" d="M303.334,143.72c-.076-.093,3.482-3.117,7.946-6.753s8.145-6.511,8.221-6.418-3.482,3.116-7.947,6.754S303.409,143.813,303.334,143.72Z"/><path class="cls-11" d="M257.813,130.594l-7.3,24.017,2.717,1.413,2.679-6.793S258.66,134.963,257.813,130.594Z"/><g class="cls-11"><path d="M294.88,113.748c3.935,2.075-5.928,7.067-10.382,6.933l3.234-8.536S293.559,113.052,294.88,113.748Z"/></g><path class="cls-10" d="M268.386,112.145v-6.359s12.422,3.2,12.873,10.628c0,0,1.58-8.215,7.98-8.609l.9,11.556-7.447,6.48h-7.549l-5.98-5.158-.781-8.024"/><path class="cls-4" d="M284.054,152.064a8.371,8.371,0,0,1-.021-1.368c.018-.878.034-2.15.038-3.721.011-3.14-.087-7.48-.481-12.254s-1.019-9.072-1.548-12.167c-.265-1.491-.484-2.725-.652-3.664a8.279,8.279,0,0,1-.2-1.352,8.276,8.276,0,0,1,.369,1.317c.214.854.486,2.1.789,3.644a114.064,114.064,0,0,1,2.034,24.481c-.044,1.573-.107,2.846-.177,3.724A8.187,8.187,0,0,1,284.054,152.064Z"/><path class="cls-4" d="M280.688,114.275a1.509,1.509,0,0,0-.737.069c-.475.153-.9.744-1.247,1.587a35.952,35.952,0,0,0-2.363,6.873l-.066.283-.25-.151c-.743-.448-1.5-.933-2.27-1.453a45.151,45.151,0,0,1-4.028-3.06,5.069,5.069,0,0,1-1.371-1.8,5.667,5.667,0,0,1-.419-1.918,11.142,11.142,0,0,1,.276-2.782,4.148,4.148,0,0,1,.272-.984,5.279,5.279,0,0,1-.106,1.013,13.082,13.082,0,0,0-.136,2.732,5.474,5.474,0,0,0,.441,1.792,4.758,4.758,0,0,0,1.307,1.642c1.174.982,2.538,2,4.007,3,.759.515,1.513,1,2.247,1.449l-.317.132a31.455,31.455,0,0,1,2.528-6.894,5.241,5.241,0,0,1,.654-1.071,1.67,1.67,0,0,1,.793-.538C280.43,114.056,280.708,114.269,280.688,114.275Z"/><path class="cls-4" d="M289.239,107.805a4.511,4.511,0,0,1,.117.993l.2,2.707c.093,1.14.232,2.5.465,3.987a6.672,6.672,0,0,1,.149,2.441,4.192,4.192,0,0,1-1.634,2.087A18.358,18.358,0,0,0,285.8,122.1l-.331.371-.033-.494a14.871,14.871,0,0,0-1.835-6.195c-.789-1.416-1.441-2.145-1.389-2.186a2.323,2.323,0,0,1,.49.491,12.185,12.185,0,0,1,1.127,1.563,14.2,14.2,0,0,1,2.023,6.3l-.364-.124a17.447,17.447,0,0,1,2.784-2.145,3.856,3.856,0,0,0,1.484-1.847,6.566,6.566,0,0,0-.133-2.277c-.213-1.509-.321-2.878-.376-4.026s-.064-2.079-.061-2.721A4.346,4.346,0,0,1,289.239,107.805Z"/><path class="cls-4" d="M329.221,109.4c-.506.595-18.793,25.047-18.793,25.047L313,135.907l18.766-24.142Z"/><path class="cls-9" d="M255.757,128.734s19.238,27.693,20.4,28.237c2.283,1.071,28.6-21.673,31.112-23.849.346-.462,1.06-1.437,2.462-3.377,0,0,2.076-9.5,4.292-8.772s-1.214,4.829.229,8.439,8.053-5,8.317-5.774l1.705-2.227s1.787,5.068,1.666,7.184c-.388,6.779-6.8,14.841-6.8,14.841s-28.8,35.681-48.533,36.788c-5.683.319-15.781-15.8-22.533-27.9a16.546,16.546,0,0,1,4.715-21.427Z"/><path class="cls-8" d="M322.7,129.8a27.921,27.921,0,0,1,1.233-2.509c.685-1.379,1.176-2.529,1.246-2.5A15.6,15.6,0,0,1,322.7,129.8Z"/><path class="cls-10" d="M252.5,115.219s-20.649,7.341-5.3,42.066L271.041,142.9l-3.391-8.12Z"/><path class="cls-4" d="M250.918,115.82a7.162,7.162,0,0,1,2.486.209,10.1,10.1,0,0,1,2.708,1.143,14.634,14.634,0,0,1,3.008,2.468,36.09,36.09,0,0,1,5.609,8.38c1.747,3.376,3.377,7.221,5.048,11.262.5,1.21,1,2.4,1.462,3.533l.074.179-.169.092c-6.9,3.76-12.9,7.281-17.147,9.916-2.124,1.315-3.816,2.395-4.977,3.147l-1.337.858a2.988,2.988,0,0,1-.48.278,2.721,2.721,0,0,1,.434-.344c.293-.214.726-.531,1.3-.923,1.135-.792,2.8-1.911,4.91-3.26,4.209-2.7,10.2-6.274,17.094-10.049l-.1.271-1.465-3.532c-1.671-4.039-3.285-7.879-5-11.246a36.78,36.78,0,0,0-5.476-8.352,14.751,14.751,0,0,0-2.913-2.472,10.318,10.318,0,0,0-2.624-1.186A14.908,14.908,0,0,0,250.918,115.82Z"/><path class="cls-12" d="M295.338,64.338a1.261,1.261,0,0,1,.1.362,4.722,4.722,0,0,1,.06,1.078,5.513,5.513,0,0,1-7.132,5,4.907,4.907,0,0,1-2.846-2.062,2.908,2.908,0,0,1-.426-1.879,2.431,2.431,0,0,1,1.021-1.716,2.109,2.109,0,0,1,2-.128,2.538,2.538,0,0,1,1.365,1.372,3.641,3.641,0,0,1-.546,3.457,4.336,4.336,0,0,1-5.454,1.185,9.289,9.289,0,0,0-2.055-.788,2.583,2.583,0,0,0-1.589.167,8.7,8.7,0,0,0-1.184.78c-.01-.011.073-.108.244-.287a2,2,0,0,1,.339-.3,2.518,2.518,0,0,1,.529-.34,2.706,2.706,0,0,1,1.7-.254,9.121,9.121,0,0,1,2.136.746,6.055,6.055,0,0,0,1.2.4,3.788,3.788,0,0,0,1.34-.024,3.928,3.928,0,0,0,2.47-1.513,3.252,3.252,0,0,0,.476-3.058,1.962,1.962,0,0,0-2.733-1.045,2.015,2.015,0,0,0-.831,1.412,2.483,2.483,0,0,0,.364,1.6,4.529,4.529,0,0,0,2.593,1.9,5.317,5.317,0,0,0,5.227-1.236,5.652,5.652,0,0,0,1.625-3.4A11.369,11.369,0,0,0,295.338,64.338Z"/><path class="cls-4" d="M290.84,95.7c.01.052-.255.162-.712.181a3.7,3.7,0,0,1-3.073-1.548c-.256-.379-.326-.657-.278-.68A5.707,5.707,0,0,0,290.84,95.7Z"/><path class="cls-4" d="M269.029,92.026c.038-.036.272.366-.03.938a1.392,1.392,0,0,1-.848.673,1.44,1.44,0,0,1-1.292-.339,1.55,1.55,0,0,1-.547-1.207,1.665,1.665,0,0,1,.38-1c.4-.47.805-.513.812-.466.031.062-.294.21-.564.645a1.294,1.294,0,0,0,.2,1.7,1.1,1.1,0,0,0,.915.276,1.164,1.164,0,0,0,.681-.447C269.042,92.4,268.96,92.035,269.029,92.026Z"/><path class="cls-12" d="M296.707,67.139a2.744,2.744,0,0,1,.4,1.528A5.079,5.079,0,0,1,292.483,74a2.749,2.749,0,0,1-1.569-.179c.011-.074.605.035,1.529-.124A5.137,5.137,0,0,0,296.8,68.67C296.828,67.733,296.635,67.16,296.707,67.139Z"/><path class="cls-2" d="M268.579,136.732c.053.107-5.432,2.927-12.249,6.3s-12.388,6.017-12.441,5.91,5.43-2.927,12.249-6.3S268.526,136.624,268.579,136.732Z"/><path class="cls-2" d="M263.58,127.3c.057.106-4.825,2.836-10.9,6.1s-11.052,5.822-11.109,5.717,4.825-2.836,10.9-6.1S263.524,127.193,263.58,127.3Z"/><path class="cls-2" d="M258.752,119.67a19.593,19.593,0,0,1-2.443,1.445l-5.971,3.331-5.941,3.388a19.475,19.475,0,0,1-2.5,1.342,17.438,17.438,0,0,1,2.342-1.6c1.482-.937,3.556-2.187,5.886-3.5s4.473-2.442,6.041-3.225A17.245,17.245,0,0,1,258.752,119.67Z"/><path class="cls-2" d="M277.018,117.866a3.916,3.916,0,0,1-1.607-.432,12.343,12.343,0,0,1-3.363-2.189,23.047,23.047,0,0,1-2.713-2.938,6.034,6.034,0,0,1-.939-1.363,6.629,6.629,0,0,1,1.172,1.165c.689.745,1.623,1.789,2.767,2.812a15.449,15.449,0,0,0,3.205,2.235C276.434,117.613,277.036,117.8,277.018,117.866Z"/><path class="cls-2" d="M289.151,113.361a5.793,5.793,0,0,1-4.479,3.771,29.217,29.217,0,0,0,2.472-1.609A29.242,29.242,0,0,0,289.151,113.361Z"/><path class="cls-2" d="M310.779,125.878a1.955,1.955,0,0,1-.463.087l-1.338.165c-1.164.128-2.85.29-4.936.452-4.172.333-9.944.659-16.324.892s-12.164.309-16.349.275c-2.092-.013-3.786-.055-4.955-.1l-1.346-.069a1.918,1.918,0,0,1-.468-.054,1.939,1.939,0,0,1,.47-.034l1.347-.012,4.951-.038c4.181-.044,9.957-.178,16.334-.4s12.146-.51,16.319-.764l4.942-.315,1.344-.084A1.964,1.964,0,0,1,310.779,125.878Z"/><path class="cls-2" d="M304.211,135.741a8.413,8.413,0,0,1-1.367.215c-.883.11-2.164.249-3.748.391-3.168.292-7.555.593-12.405.791s-9.249.247-12.431.212c-1.59-.014-2.878-.049-3.767-.087a8.374,8.374,0,0,1-1.379-.105,8.6,8.6,0,0,1,1.382-.064l3.764-.05c3.177-.043,7.567-.145,12.413-.339s9.228-.45,12.4-.664l3.756-.253A8.493,8.493,0,0,1,304.211,135.741Z"/><path class="cls-2" d="M289.3,147.906a16.568,16.568,0,0,1-2.756.389c-1.71.176-4.077.366-6.7.5s-4.994.177-6.712.171a16.607,16.607,0,0,1-2.782-.113,19.024,19.024,0,0,1,2.776-.193l6.7-.3,6.692-.369A19.123,19.123,0,0,1,289.3,147.906Z"/><path class="cls-2" d="M270.241,119.039c0,.124-2.554.151-5.694.283s-5.686.308-5.7.185a42.482,42.482,0,0,1,11.393-.468Z"/><path class="cls-2" d="M305.33,118.59a63.337,63.337,0,0,1-7.391.188,63.371,63.371,0,0,1-7.39-.244,63.217,63.217,0,0,1,7.392-.189A63.2,63.2,0,0,1,305.33,118.59Z"/><path class="cls-2" d="M306.608,169.2a3.406,3.406,0,0,1-.758.435c-.5.259-1.238.6-2.164.986a47.35,47.35,0,0,1-15.236,3.512c-1,.056-1.815.075-2.376.061a3.366,3.366,0,0,1-.872-.06c0-.069,1.237-.117,3.225-.307a58.347,58.347,0,0,0,15.147-3.491C305.444,169.638,306.578,169.139,306.608,169.2Z"/><ellipse class="cls-2" cx="81.927" cy="248.064" rx="36.007" ry="34.348"/><path class="cls-5" d="M74.591,165.247c-5.712.3-7.955,6.252-8.638,7.581a11.529,11.529,0,0,0-.915,4.358,9.481,9.481,0,0,1-1.1,4.3c-1.258,2.007-3.9,3.044-4.619,5.3-.814,2.55,1.275,5.28.719,7.9-.3,1.406-1.326,2.563-1.689,3.953a5.83,5.83,0,0,0,.772,4.319c1.876,3.223,5.765,4.841,9.491,4.974s7.372-.982,10.934-2.085"/><path class="cls-5" d="M99.727,172.648a3.559,3.559,0,0,0,.846,3.681,22.9,22.9,0,0,0,3.092,2.519,5.058,5.058,0,0,1,2.111,3.264c.11,1.218-.5,2.427-.335,3.639.426,3.114,5.392,4.048,5.656,7.18.177,2.085-1.964,4-1.37,6.007a9.483,9.483,0,0,0,1.236,2.052c1.409,2.34.453,5.568-1.588,7.382a12.143,12.143,0,0,1-7.609,2.576c-2.3.1-4.9-.272-6.253-2.129-1.236-1.7-.983-4.018-.736-6.1,1.154-9.747.958-19.6.76-29.41"/><path class="cls-9" d="M76.092,217.756c.043-5.121,0-10.513,0-10.513s-6.584-1.172-7.851-9.794c-1.208-8.223.841-25.91.841-25.91h0c9.539-3.762,20.279-2.306,26.961,5.371h0L95,218.5c-.121,4.827-4.368,8.569-9.536,8.4h0C80.244,226.725,76.05,222.634,76.092,217.756Z"/><path class="cls-4" d="M70.87,185.12a1.1,1.1,0,0,0,1.051,1.126,1.055,1.055,0,0,0,1.149-.982,1.1,1.1,0,0,0-1.05-1.127A1.056,1.056,0,0,0,70.87,185.12Z"/><path class="cls-4" d="M69.094,184.266c.135.146.979-.463,2.167-.446,2.235.323,2.194.665,2.181.477.065-.064-.072-.325-.448-.606a3.025,3.025,0,0,0-1.745-.56,2.908,2.908,0,0,0-1.726.535C69.154,183.942,69.028,184.2,69.094,184.266Z"/><path class="cls-4" d="M83.026,185.47a1.1,1.1,0,0,0,1.052,1.126,1.055,1.055,0,0,0,1.149-.982,1.1,1.1,0,0,0-1.05-1.126A1.057,1.057,0,0,0,83.026,185.47Z"/><path class="cls-4" d="M81.483,184.677c.135.145.979-.464,2.166-.447,1.187,0,2.051.621,2.182.477.064-.064-.071-.325-.449-.606a3.033,3.033,0,0,0-1.744-.56,2.912,2.912,0,0,0-1.727.536C81.544,184.353,81.416,184.612,81.483,184.677Z"/><path class="cls-4" d="M77.07,193.2a7.851,7.851,0,0,0-1.925-.37c-.3-.035-.589-.1-.638-.306a1.545,1.545,0,0,1,.213-.9l.924-2.3a39.771,39.771,0,0,0,2.084-6.018,39.882,39.882,0,0,0-2.564,5.836q-.463,1.21-.886,2.313a1.753,1.753,0,0,0-.171,1.189.759.759,0,0,0,.493.449,2.06,2.06,0,0,0,.515.078A7.783,7.783,0,0,0,77.07,193.2Z"/><path class="cls-8" d="M76.087,207.243A21.9,21.9,0,0,0,87.649,204.3s-2.865,5.879-11.469,4.974Z"/><path class="cls-8" d="M77.539,196.065a2.139,2.139,0,0,1,1.928-.772,1.952,1.952,0,0,1,1.341.739,1.24,1.24,0,0,1,.078,1.417,1.438,1.438,0,0,1-1.562.376,4.5,4.5,0,0,1-1.507-.924,1.317,1.317,0,0,1-.336-.355.4.4,0,0,1,.007-.442"/><path class="cls-4" d="M80.556,194.059c-.193-.013-.21,1.276-1.324,2.178s-2.485.745-2.5.925c-.019.081.3.254.883.276a3.21,3.21,0,0,0,2.083-.7,2.792,2.792,0,0,0,1.028-1.827C80.785,194.374,80.644,194.053,80.556,194.059Z"/><path class="cls-5" d="M92.3,170.768c-3.149,4.491-11.487,9.109-17.457,10.181.7-.917,4.365-3.178,5.062-4.1-2.707,2.021-6.58,4.724-10.17,4.907a2.176,2.176,0,0,1-1.234-.192,1.666,1.666,0,0,1-.628-1.352,35.959,35.959,0,0,1,.248-7.8,8.635,8.635,0,0,1,3.106-5.565c2.3-1.777,5.593-2.215,8.695-2.29a19.664,19.664,0,0,1,7.661,1.03c2.378.939,4.412,2.794,4.76,5.025"/><path class="cls-5" d="M101.329,190.888a48.773,48.773,0,0,0,.86-5.753c.254-4.442-1.029-20.835-16.343-19.515l-.618,4.664s-2.366,15.965,7.539,16.083A17.81,17.81,0,0,0,97.8,195.75s2.6-.079,3.528-4.862"/><path class="cls-9" d="M92.767,186.367a5.133,5.133,0,0,1,2.769.209,3.58,3.58,0,0,1,2.006,1.863,3.743,3.743,0,0,1-.008,2.752,6.34,6.34,0,0,1-1.594,2.3,4.3,4.3,0,0,1-1.684,1.09,2.052,2.052,0,0,1-1.913-.32"/><path class="cls-8" d="M93.212,191.952c-.106.033.288.594,1.132.377a1.809,1.809,0,0,0,1.05-.9,4.1,4.1,0,0,0,.476-1.522,2.406,2.406,0,0,0-.37-1.624,1.6,1.6,0,0,0-1.2-.728c-.866-.03-1.141.567-1.043.585.068.071.408-.234.973-.091a1.553,1.553,0,0,1,.939,1.789c-.114.945-.488,1.808-1,2.018C93.646,192.121,93.27,191.876,93.212,191.952Z"/><path class="cls-4" d="M94.439,169.084a5.22,5.22,0,0,0,7.067-1.857,3.347,3.347,0,0,0,.484-2.5,3.438,3.438,0,0,0-2.572-2.23,5.256,5.256,0,0,0-4.829,1.16,4.61,4.61,0,0,0-1.247,4.739,4.114,4.114,0,0,0,3.972,2.741"/><path class="cls-5" d="M95.835,193.912a12.19,12.19,0,0,0-2.381,2.053,4.1,4.1,0,0,0-1.027,2.9,7.488,7.488,0,0,1,.193,1.746,5.817,5.817,0,0,1-1.207,2.075,4.933,4.933,0,0,0,.778,5.78,8,8,0,0,0,5.658,2.3,4.845,4.845,0,0,0,5.5-5.455"/><path class="cls-12" d="M96.875,172.52a5.7,5.7,0,0,1-.9,1.57,18.182,18.182,0,0,1-6.584,5.659,5.7,5.7,0,0,1-1.688.656,39.326,39.326,0,0,0,5.041-3.416A39.423,39.423,0,0,0,96.875,172.52Z"/><path class="cls-12" d="M98.463,172.435a6.786,6.786,0,0,1-.282,2.1,16.955,16.955,0,0,1-5.215,8.668,6.828,6.828,0,0,1-1.723,1.233,26.31,26.31,0,0,0,4.621-5.392A26.25,26.25,0,0,0,98.463,172.435Z"/><path class="cls-12" d="M65.215,179.367c.127-.009.291,1.432.788,3.134s1.115,3.011,1,3.071a9.839,9.839,0,0,1-1.791-6.205Z"/><path class="cls-12" d="M101.9,208.794a2.409,2.409,0,0,0,1.266.407,2.591,2.591,0,0,0,1.466-.462,2.949,2.949,0,0,0,1.109-1.681,5.394,5.394,0,0,0,.016-2.507c-.179-.9-.529-1.836-.838-2.854a7.52,7.52,0,0,1-.369-3.352c.191-1.219.981-2.207,1.367-3.3a4.323,4.323,0,0,0-2.526-5.365c-.477-.2-.97-.376-1.427-.624a2.9,2.9,0,0,1-1.139-1.021,4.8,4.8,0,0,1-.515-2.616,8.941,8.941,0,0,0-.085-2.116,3.465,3.465,0,0,0-.624-1.432,2.075,2.075,0,0,0-1.122-.694.778.778,0,0,1,.363.028,1.744,1.744,0,0,1,.887.557,3.51,3.51,0,0,1,.732,1.487,8.8,8.8,0,0,1,.156,2.17,4.543,4.543,0,0,0,.511,2.423,4.623,4.623,0,0,0,2.417,1.47,4.715,4.715,0,0,1,2.78,5.877c-.432,1.192-1.191,2.143-1.357,3.23a7.213,7.213,0,0,0,.334,3.168c.292,1,.636,1.955.808,2.9a5.653,5.653,0,0,1-.074,2.66,3.18,3.18,0,0,1-1.27,1.8,2.7,2.7,0,0,1-1.606.428,1.942,1.942,0,0,1-1-.326A.911.911,0,0,1,101.9,208.794Z"/><path class="cls-12" d="M95.894,208.209c.039-.024.109.267.512.45a1.365,1.365,0,0,0,1.614-.437,2.543,2.543,0,0,0-.135-2.6c-.473-.94-1.416-1.861-1.657-3.234a2.344,2.344,0,0,1,.463-1.919c.406-.5.885-.836,1.2-1.247a3.628,3.628,0,0,0,.579-2.656,10.319,10.319,0,0,0-.477-1.887,2.5,2.5,0,0,1-.192-.7,2.288,2.288,0,0,1,.349.643,8.08,8.08,0,0,1,.623,1.9,3.854,3.854,0,0,1-.564,2.943c-.354.477-.838.827-1.181,1.268a1.922,1.922,0,0,0-.369,1.586c.195,1.2,1.08,2.1,1.584,3.121a2.829,2.829,0,0,1,.028,2.968,1.5,1.5,0,0,1-1.056.577,1.46,1.46,0,0,1-.882-.17C95.884,208.537,95.878,208.2,95.894,208.209Z"/><path class="cls-12" d="M63.29,206.036a3.678,3.678,0,0,1-.677-.676,8.191,8.191,0,0,1-1.451-2.186,4.376,4.376,0,0,1-.349-1.816,3.165,3.165,0,0,1,.733-2.015c.516-.6,1.263-.907,1.714-1.467a2.447,2.447,0,0,0,.344-2.14,9.088,9.088,0,0,0-.912-2.2,7.573,7.573,0,0,1-.809-2.183,2.854,2.854,0,0,1,.429-2.1,7.272,7.272,0,0,1,1.267-1.32A3.8,3.8,0,0,0,65,185.908a2.461,2.461,0,0,0-.036-.917c.011-.005.066.064.126.22a1.47,1.47,0,0,1,.076.723,3.777,3.777,0,0,1-1.378,2.226,7.364,7.364,0,0,0-1.174,1.291,2.5,2.5,0,0,0-.336,1.84,7.407,7.407,0,0,0,.792,2.053,9.211,9.211,0,0,1,.958,2.3,2.86,2.86,0,0,1-.437,2.5c-.566.665-1.31.952-1.745,1.463a2.822,2.822,0,0,0-.673,1.765,4.123,4.123,0,0,0,.275,1.688,9.26,9.26,0,0,0,1.3,2.194A4.5,4.5,0,0,1,63.29,206.036Z"/><path class="cls-13" d="M97.977,170.172a13.645,13.645,0,0,0-2.028-2.2,13.725,13.725,0,0,0-2.671-1.352,4.97,4.97,0,0,1,4.7,3.555Z"/><path class="cls-12" d="M99.178,162.208c.044-.028.322.3.547.943a4.505,4.505,0,0,1-1.344,4.867c-.525.438-.931.574-.954.529s.306-.286.743-.751a4.948,4.948,0,0,0,1.26-4.562A6.261,6.261,0,0,1,99.178,162.208Z"/><path class="cls-14" d="M56.941,264.527S77.606,284.15,89.89,280.6s15.921-12.769,15.921-12.769l.3-3.3-1.231-.806-47.294-3.829Z"/><path class="cls-8" d="M44.716,246.145,48.7,235.926,62.985,244.9,50.257,264.527S45.08,257.8,44.716,246.145Z"/><path class="cls-3" d="M60.835,217.909c6.645-3.472,15.252-4.472,15.252-4.472h0c2.5,5,10.372,5.635,15.138,2.222l4.02-2.717a14.566,14.566,0,0,1,1.684.069,21.471,21.471,0,0,1,19.017,17.1,42.888,42.888,0,0,1,1,10.806c-.523,9.087-9.933,9.908-9.933,9.908s-.485,8.982-1.12,16.236h0a13.548,13.548,0,0,1-8.23,11.738,33.458,33.458,0,0,1-10.491,3.234,35.234,35.234,0,0,1-31.26-10.824c1.427-8.655,2.791-19.861,2.694-20.363a.239.239,0,0,1,.016-.165L49.3,242.4l-5.286-4.439s11.6-17.216,16.821-20.051"/><path class="cls-6" d="M72.391,223.509a4.946,4.946,0,0,0-2.306-.638,3.8,3.8,0,0,0-2.378.825,10.113,10.113,0,0,0-1.059,1.137,2.746,2.746,0,0,1-1.509,1,2.451,2.451,0,0,1-1.757-.471c-.479-.306-.889-.642-1.31-.883a2.852,2.852,0,0,0-2.44-.213,3.23,3.23,0,0,0-1.418.978c-.261.324-.357.544-.392.529a1.244,1.244,0,0,1,.256-.628,3.219,3.219,0,0,1,4.191-1.014c.464.255.885.59,1.338.872a2.064,2.064,0,0,0,1.455.4,2.384,2.384,0,0,0,1.271-.859,9.6,9.6,0,0,1,1.125-1.165,3.989,3.989,0,0,1,2.632-.819,3.8,3.8,0,0,1,1.782.508C72.247,223.305,72.405,223.493,72.391,223.509Z"/><path class="cls-6" d="M81.868,235.926a4.945,4.945,0,0,0-1.981-1.341,3.791,3.791,0,0,0-2.517.022,9.91,9.91,0,0,0-1.367.739,2.755,2.755,0,0,1-1.75.467,2.45,2.45,0,0,1-1.514-1.007c-.357-.444-.637-.893-.959-1.256a2.855,2.855,0,0,0-2.244-.981,3.227,3.227,0,0,0-1.656.473c-.352.224-.513.4-.542.376s.1-.231.444-.513a3.221,3.221,0,0,1,4.3.378c.358.39.65.842.99,1.254a2.065,2.065,0,0,0,1.25.847,2.382,2.382,0,0,0,1.479-.408,9.539,9.539,0,0,1,1.437-.744,3.993,3.993,0,0,1,2.757.064,3.813,3.813,0,0,1,1.526,1.051A1.413,1.413,0,0,1,81.868,235.926Z"/><path class="cls-6" d="M102.918,217.743a4.948,4.948,0,0,0-2.388-.135,3.793,3.793,0,0,0-2.15,1.31,9.926,9.926,0,0,0-.794,1.336,2.757,2.757,0,0,1-1.263,1.3,2.457,2.457,0,0,1-1.817-.088c-.533-.2-1-.439-1.467-.586a2.858,2.858,0,0,0-2.43.308,3.231,3.231,0,0,0-1.178,1.256,5.363,5.363,0,0,1-.272.6,1.254,1.254,0,0,1,.117-.668,3.219,3.219,0,0,1,3.881-1.878c.508.151.991.39,1.493.569a2.066,2.066,0,0,0,1.508.086,2.388,2.388,0,0,0,1.06-1.108,9.594,9.594,0,0,1,.852-1.377,3.988,3.988,0,0,1,2.4-1.358,3.789,3.789,0,0,1,1.849.12A1.41,1.41,0,0,1,102.918,217.743Z"/><path class="cls-6" d="M93.205,231.39a4.248,4.248,0,0,0-1.494-1.07,2.9,2.9,0,0,0-1.913-.059,7.788,7.788,0,0,0-1.072.522,2.164,2.164,0,0,1-1.4.3,1.94,1.94,0,0,1-1.162-.849c-.261-.358-.46-.713-.691-1a2.179,2.179,0,0,0-1.661-.829,3.029,3.029,0,0,0-1.723.544c-.017-.015.076-.185.35-.4a2.392,2.392,0,0,1,1.375-.453,2.441,2.441,0,0,1,1.967.882c.267.316.478.675.723,1a1.547,1.547,0,0,0,.905.677c.765.135,1.466-.553,2.265-.781a3.1,3.1,0,0,1,2.149.157C92.983,230.569,93.249,231.4,93.205,231.39Z"/><path class="cls-6" d="M71.783,242.886a4.246,4.246,0,0,0-1.494-1.07,2.9,2.9,0,0,0-1.914-.06,7.836,7.836,0,0,0-1.071.522,2.164,2.164,0,0,1-1.4.3,1.937,1.937,0,0,1-1.162-.849c-.261-.357-.46-.713-.692-1a2.171,2.171,0,0,0-1.66-.828,3.02,3.02,0,0,0-1.723.543c-.017-.014.076-.184.349-.4A2.392,2.392,0,0,1,62.4,239.6a2.44,2.44,0,0,1,1.967.881c.267.316.478.676.723,1a1.55,1.55,0,0,0,.9.677c.765.134,1.467-.554,2.265-.782a3.1,3.1,0,0,1,2.15.157C71.56,242.064,71.826,242.9,71.783,242.886Z"/><path class="cls-6" d="M91.808,243.145a4.244,4.244,0,0,0-1.759-.529,2.9,2.9,0,0,0-1.83.563,7.833,7.833,0,0,0-.845.84,2.158,2.158,0,0,1-1.223.74,1.942,1.942,0,0,1-1.374-.427c-.362-.254-.666-.526-.978-.724a2.176,2.176,0,0,0-1.839-.246,3.035,3.035,0,0,0-1.455,1.071c-.021-.007.013-.2.2-.488a2.4,2.4,0,0,1,1.155-.874,2.441,2.441,0,0,1,2.146.2c.355.213.67.485,1.008.713a1.556,1.556,0,0,0,1.075.348c.767-.121,1.209-1,1.89-1.473a3.1,3.1,0,0,1,2.084-.547A2.243,2.243,0,0,1,91.808,243.145Z"/><path class="cls-6" d="M85.193,252.28a4.235,4.235,0,0,0-1.759-.53,2.9,2.9,0,0,0-1.83.563,7.848,7.848,0,0,0-.845.841,2.163,2.163,0,0,1-1.223.74,1.942,1.942,0,0,1-1.374-.427c-.362-.254-.666-.526-.978-.724a2.169,2.169,0,0,0-1.839-.246,3.035,3.035,0,0,0-1.455,1.071c-.021-.008.013-.2.2-.488a2.393,2.393,0,0,1,1.155-.874,2.441,2.441,0,0,1,2.146.2c.355.212.671.484,1.008.712a1.546,1.546,0,0,0,1.075.348c.767-.12,1.209-1,1.89-1.472a3.1,3.1,0,0,1,2.084-.547A2.236,2.236,0,0,1,85.193,252.28Z"/><path class="cls-6" d="M71.224,274.954a4.233,4.233,0,0,0-1.508-1.049,2.9,2.9,0,0,0-1.915-.032,7.75,7.75,0,0,0-1.063.537,2.165,2.165,0,0,1-1.392.324,1.935,1.935,0,0,1-1.174-.832c-.266-.354-.47-.707-.706-.992a2.172,2.172,0,0,0-1.672-.8,3.037,3.037,0,0,0-1.715.567c-.018-.014.074-.185.344-.4a2.393,2.393,0,0,1,1.369-.473,2.443,2.443,0,0,1,1.979.854c.271.312.487.669.737.99a1.552,1.552,0,0,0,.914.665c.767.123,1.459-.575,2.254-.814a3.1,3.1,0,0,1,2.151.126C70.99,274.136,71.268,274.963,71.224,274.954Z"/><path class="cls-6" d="M87.57,279.777a4.238,4.238,0,0,0-1.752-.554,2.9,2.9,0,0,0-1.838.538,7.788,7.788,0,0,0-.856.829,2.164,2.164,0,0,1-1.233.722,1.934,1.934,0,0,1-1.368-.446c-.359-.259-.659-.535-.968-.737a2.177,2.177,0,0,0-1.836-.272,3.02,3.02,0,0,0-1.469,1.052c-.021-.008.015-.2.209-.485a2.391,2.391,0,0,1,1.167-.858,2.44,2.44,0,0,1,2.144.227c.351.217.663.494,1,.727a1.546,1.546,0,0,0,1.07.362c.768-.11,1.222-.981,1.91-1.446a3.1,3.1,0,0,1,2.092-.518A2.244,2.244,0,0,1,87.57,279.777Z"/><path class="cls-4" d="M33.705,210.992c.505.594,18.792,25.047,18.792,25.047L49.923,237.5,31.157,213.356Z"/><path class="cls-9" d="M105.083,228.438s-17.152,29.579-18.311,30.123c-2.284,1.072-28.6-21.672-31.113-23.848-.345-.462-1.06-1.437-2.461-3.377,0,0-2.077-9.5-4.293-8.772s1.214,4.828-.229,8.439-8.052-5-8.317-5.774L38.655,223s-1.788,5.068-1.666,7.184c.387,6.779,6.8,14.841,6.8,14.841s26.063,32.658,45.793,33.765c5.682.319,16.537-16.041,23.288-28.131,4.077-7.3,2.185-14.719-4.572-19.646Z"/><path class="cls-8" d="M40.226,231.39a15.584,15.584,0,0,1-2.479-5.01c.07-.027.562,1.123,1.246,2.5S40.29,231.351,40.226,231.39Z"/><path class="cls-3" d="M104.277,220.209c-.678.407-16.628,30.017-16.628,30.017l20.531,16.082a237.679,237.679,0,0,0,8.158-23.853c.764-2.9.37-10.661-.709-13.653-1.534-4.253-3.847-3.194-7.31-5.685Z"/><g class="cls-15"><path d="M111.021,220.209c-.012.019-.2-.113-.585-.306a3.446,3.446,0,0,0-1.805-.379,4.924,4.924,0,0,0-2.679,1.118,13.324,13.324,0,0,0-2.672,2.879c-.867,1.182-1.584,2.624-2.46,4.128l-2.742,4.817-6.31,11.022-3.936,6.842-.053-.269,13.891,10.977c1.691,1.359,3.054,2.452,4.03,3.236l1.069.882a2.3,2.3,0,0,1,.354.325,2.473,2.473,0,0,1-.4-.266l-1.112-.827L101.5,261.25,87.52,250.392l-.144-.112.091-.158,3.923-6.846,6.338-11,2.777-4.8a47.263,47.263,0,0,1,2.527-4.136,13.321,13.321,0,0,1,2.776-2.893,5.041,5.041,0,0,1,2.816-1.093,3.4,3.4,0,0,1,1.853.47,2.939,2.939,0,0,1,.415.275C110.982,220.166,111.026,220.2,111.021,220.209Z"/></g><path class="cls-6" d="M104.891,247.974a4.235,4.235,0,0,0-1.493-1.07,2.9,2.9,0,0,0-1.914-.06,7.78,7.78,0,0,0-1.071.522,2.168,2.168,0,0,1-1.4.3,1.94,1.94,0,0,1-1.162-.849c-.261-.357-.46-.713-.691-1a2.172,2.172,0,0,0-1.661-.828,3.024,3.024,0,0,0-1.723.543c-.017-.014.077-.184.35-.4a2.386,2.386,0,0,1,1.376-.453,2.442,2.442,0,0,1,1.967.881c.266.316.477.676.723,1a1.55,1.55,0,0,0,.9.677c.765.134,1.467-.554,2.265-.782a3.1,3.1,0,0,1,2.149.157C104.669,247.152,104.935,247.983,104.891,247.974Z"/><path class="cls-6" d="M114.275,244.144a4.232,4.232,0,0,0-1.149-1.433,2.9,2.9,0,0,0-1.827-.574,7.8,7.8,0,0,0-1.172.214,2.163,2.163,0,0,1-1.427-.084,1.937,1.937,0,0,1-.89-1.131c-.155-.414-.251-.811-.4-1.15a2.174,2.174,0,0,0-1.375-1.246,3.017,3.017,0,0,0-1.806.059c-.013-.019.123-.157.443-.288a2.394,2.394,0,0,1,1.447-.065,2.441,2.441,0,0,1,1.657,1.379c.171.376.277.779.426,1.159a1.552,1.552,0,0,0,.688.9c.7.335,1.562-.138,2.392-.142a3.09,3.09,0,0,1,2.027.731A2.238,2.238,0,0,1,114.275,244.144Z"/><path class="cls-6" d="M114.757,231.9a4.232,4.232,0,0,0-1.149-1.433,2.9,2.9,0,0,0-1.827-.574,7.824,7.824,0,0,0-1.172.214,2.163,2.163,0,0,1-1.427-.084,1.937,1.937,0,0,1-.89-1.131c-.155-.414-.251-.811-.4-1.15a2.174,2.174,0,0,0-1.375-1.246,3.017,3.017,0,0,0-1.806.059c-.013-.019.123-.157.444-.288a2.39,2.39,0,0,1,1.446-.065,2.44,2.44,0,0,1,1.657,1.38c.171.375.277.779.426,1.158a1.548,1.548,0,0,0,.688.9c.7.335,1.562-.138,2.392-.142a3.105,3.105,0,0,1,2.028.731A2.239,2.239,0,0,1,114.757,231.9Z"/><path class="cls-6" d="M110.215,260.043a4.252,4.252,0,0,0-1.15-1.434,2.9,2.9,0,0,0-1.827-.573,7.7,7.7,0,0,0-1.172.214,2.176,2.176,0,0,1-1.427-.084,1.937,1.937,0,0,1-.89-1.131c-.154-.415-.25-.811-.395-1.151a2.171,2.171,0,0,0-1.376-1.245,3.032,3.032,0,0,0-1.806.058c-.012-.018.124-.157.444-.287a2.394,2.394,0,0,1,1.447-.065,2.442,2.442,0,0,1,1.656,1.379c.172.376.278.779.426,1.159a1.553,1.553,0,0,0,.689.9c.7.335,1.561-.138,2.391-.142a3.1,3.1,0,0,1,2.028.73A2.249,2.249,0,0,1,110.215,260.043Z"/></svg>