<svg id="Capa_1" data-name="Capa 1" xmlns="http://www.w3.org/2000/svg" viewBox="0 0 44.005 43.104"><defs><style>.cls-1{fill:#f5f5f5;}</style></defs><title>icono fb</title><path class="cls-1" d="M22.228,40.039h-.92a2.778,2.778,0,0,0-.36-.057,18.359,18.359,0,0,1-7.666-2.008,18.627,18.627,0,0,1-8.161-7.951,18.356,18.356,0,0,1-2.113-11.1A18.525,18.525,0,0,1,9.819,6.469a18.3,18.3,0,0,1,9.84-4.156A18.459,18.459,0,0,1,30.871,4.54a18.612,18.612,0,0,1,8.075,8.706,18.449,18.449,0,0,1,1.528,10.487,18.488,18.488,0,0,1-5.268,10.634,18.419,18.419,0,0,1-9.975,5.3C24.241,39.853,23.229,39.919,22.228,40.039Zm1.093-25.431h.551q1.908,0,3.816,0c.283,0,.528-.035.527-.408,0-1.455.009-2.911-.018-4.367a.555.555,0,0,0-.373-.39C26,9.448,24.173,9.4,22.36,9.547a3.762,3.762,0,0,0-3.437,3.042,14.973,14.973,0,0,0-.294,3.835c0,.207,0,.414,0,.654-.946,0-1.818,0-2.69,0-.551,0-.617.066-.617.6,0,1.364.013,2.728-.009,4.091-.008.457.181.59.6.58.735-.018,1.471-.007,2.207,0,.16,0,.32.021.508.034v9.746c0,.615.032.645.659.646q1.839,0,3.678,0c.612,0,.649-.037.649-.656q0-4.6,0-9.194v-.576h.562c1.149,0,2.3-.011,3.448,0,.425.006.605-.133.6-.584-.022-1.349-.007-2.7-.008-4.046,0-.576-.059-.638-.623-.639-1.257,0-2.513,0-3.77,0h-.5Z"/></svg>