<svg id="Capa_1" data-name="Capa 1" xmlns="http://www.w3.org/2000/svg" viewBox="0 0 44.005 43.104"><defs><style>.cls-1{fill:#f5f5f5;}</style></defs><title>icono telegram</title><path class="cls-1" d="M21.516,2.058h.368c.054.005.107.012.161.013a17.689,17.689,0,0,1,3.773.465,19.464,19.464,0,0,1,7.357,3.422,16.537,16.537,0,0,1,2.087,1.815,19.529,19.529,0,0,1,2.64,3.575,20.086,20.086,0,0,1,1.406,2.8,18.843,18.843,0,0,1,1.253,5.335,18.4,18.4,0,0,1-.542,6.176,19.592,19.592,0,0,1-2.642,5.906,18.924,18.924,0,0,1-2.383,2.926,17.817,17.817,0,0,1-4.348,3.157,19.414,19.414,0,0,1-7.228,2.191,18.3,18.3,0,0,1-6.958-.681,19.42,19.42,0,0,1-5.822-2.823,17.939,17.939,0,0,1-3.244-2.916,19.359,19.359,0,0,1-3.326-5.623A18.929,18.929,0,0,1,2.9,23.175a18.269,18.269,0,0,1-.094-3.315,18,18,0,0,1,.448-3.047,19.431,19.431,0,0,1,2.5-5.987A18.356,18.356,0,0,1,9.05,6.888a19.374,19.374,0,0,1,7.105-3.965,18.165,18.165,0,0,1,5.261-.853C21.449,2.069,21.482,2.062,21.516,2.058ZM21.394,27.05l.067.046q2.232,1.656,4.461,3.313a1.991,1.991,0,0,0,.693.336.788.788,0,0,0,1.013-.458,2.882,2.882,0,0,0,.2-.607c.249-1.137.488-2.275.729-3.413q.649-3.054,1.3-6.109.547-2.576,1.1-5.15a1.921,1.921,0,0,0,.027-.77.887.887,0,0,0-.97-.752,1.9,1.9,0,0,0-.394.1q-4.227,1.628-8.451,3.259l-8.717,3.364q-.708.274-1.409.568a1.014,1.014,0,0,0-.485.393.457.457,0,0,0,.194.728,3.059,3.059,0,0,0,.46.162q2.287.7,4.574,1.4a.18.18,0,0,0,.17-.023c.186-.121.374-.237.562-.354l10.136-6.38c.095-.059.189-.122.289-.171a.5.5,0,0,1,.388-.028.12.12,0,0,1,.073.193.954.954,0,0,1-.153.177q-1.941,1.776-3.884,3.55-2.391,2.186-4.781,4.372a.229.229,0,0,0-.067.137c-.021.2-.032.4-.048.6q-.148,1.894-.3,3.789c-.009.121-.016.242-.025.373.067-.007.122-.008.174-.019a1.79,1.79,0,0,0,.852-.482c.535-.5,1.059-1.021,1.588-1.532Z"/></svg>