<svg id="Capa_1" data-name="Capa 1" xmlns="http://www.w3.org/2000/svg" viewBox="0 0 153.08 143.771">
    <defs>
        <style>
            .cls-1 {
                fill: #242d41;
            }
        </style>
    </defs>
    <title>icono blockchain</title>
    <path class="cls-1"
        d="M66.9,31.388H83.732v3.358H60.982V24.509H28.887c-.017.311-.045.581-.045.851q0,15.147-.02,30.3c0,.782.224.994.993.984,3.127-.041,6.255-.017,9.44-.017v5.841c-.3.023-.619.069-.939.069q-6.084.009-12.169.005a2.954,2.954,0,0,1-3.261-3.282q-.009-18.756-.007-37.512a2.945,2.945,0,0,1,3.25-3.213q18.8-.006,37.6-.005a2.959,2.959,0,0,1,3.174,3.21c.008,2.854,0,5.707,0,8.56Z" />
    <path class="cls-1"
        d="M118.95,79.266h-3.371V56.5h10.21V24.386H93.727V34.767H87.84c-.015-.239-.046-.5-.047-.769q0-6.169,0-12.338a2.959,2.959,0,0,1,3.272-3.274q18.761,0,37.519,0a2.951,2.951,0,0,1,3.215,3.242q0,16.744-.018,33.488c0,1.4.025,2.8.014,4.2A2.892,2.892,0,0,1,128.76,62.4c-2.965.031-5.931.035-8.9-.006-.743-.011-.94.189-.934.937.035,5.035.019,10.071.02,15.107Z" />
    <path class="cls-1"
        d="M35.875,66.572h3.437v.793c0,7.049-.011,14.1.016,21.146,0,.73-.24.877-.915.869-3.1-.033-6.2-.014-9.39-.014v32.066c.285.022.552.059.818.059q15.1,0,30.2.02c.823,0,1.1-.166,1.084-1.053-.061-3.1-.024-6.2-.024-9.375h5.888c.011.237.034.5.034.77q0,6.125,0,12.25c0,2.216-1.153,3.345-3.366,3.344H26.488c-2.383,0-3.467-1.092-3.468-3.5q0-18.588,0-37.174c0-2.21,1.14-3.346,3.369-3.349,2.852,0,5.7-.024,8.555.019.731.011.952-.172.947-.926-.034-4.922-.017-9.844-.017-14.767Z" />
    <path class="cls-1"
        d="M125.979,121.3v-.874q0-15.189.018-30.38c0-.7-.23-.837-.862-.832-3.16.026-6.32.012-9.552.012V83.36c.2-.019.444-.059.683-.059,4.225,0,8.449,0,12.673.023a2.864,2.864,0,0,1,3,3.017q.009,18.968,0,37.934a2.893,2.893,0,0,1-3.006,3.022q-12.422.012-24.842,0-6.462,0-12.923.006a2.862,2.862,0,0,1-3.2-3.057c-.045-2.908-.031-5.818-.039-8.727,0-1.065,0-1.064-1.107-1.064q-7.427,0-14.853,0c-.277,0-.553-.03-.884-.049v-3.325H93.836V121.3Z" />
    <path class="cls-1"
        d="M111.512,94.63h-3.389c-.011-.254-.036-.551-.036-.849q-.006-18.287-.007-36.575c0-2.963-.015-5.926.018-8.889a.932.932,0,0,0-.745-1.077,6.985,6.985,0,0,1-4.806-6.682,7.121,7.121,0,1,1,9.852,6.508c-.826.333-.9.783-.9,1.5q.018,22.524.01,45.05Zm1.839-54a3.705,3.705,0,0,0-3.662-3.79,3.691,3.691,0,0,0-.111,7.38A3.7,3.7,0,0,0,113.351,40.628Z" />
    <path class="cls-1"
        d="M43.307,51.206h3.381c.012.2.042.465.042.727q0,17.793.005,35.587c0,3.351.018,6.7-.01,10.054-.005.583.2.8.73.994a7.123,7.123,0,0,1-.794,13.7,7.119,7.119,0,0,1-5.434-12.909,4.385,4.385,0,0,1,1.366-.614c.718-.164.792-.578.779-1.216-.041-1.925,0-3.851-.008-5.777-.007-1.7-.052-3.4-.053-5.105q-.008-17.248,0-34.5ZM41.465,105.26a3.685,3.685,0,1,0,3.717-3.645A3.721,3.721,0,0,0,41.465,105.26Z" />
    <path class="cls-1"
        d="M55.7,107.017v-3.423h3.624q21.226,0,42.453.013a1.185,1.185,0,0,0,1.374-.921,7.053,7.053,0,0,1,8.544-4.387,7.136,7.136,0,0,1-2.09,14.014,6.838,6.838,0,0,1-6.4-4.5,1.1,1.1,0,0,0-1.221-.81q-21.184.029-42.369.015Zm54.154,1.842a3.715,3.715,0,0,0,3.637-3.734,3.691,3.691,0,0,0-7.382.028A3.691,3.691,0,0,0,109.851,108.859Z" />
    <path class="cls-1"
        d="M99.09,38.817v3.356a5.655,5.655,0,0,1-.625.065c-3.069-.02-6.137-.07-9.2-.066q-18.159.023-36.32.061a1.085,1.085,0,0,0-1.246.854A7.121,7.121,0,1,1,48.923,34.7a6.826,6.826,0,0,1,2.74,3.4.938.938,0,0,0,1.081.727q16.988-.023,33.976-.01ZM45.053,36.97a3.619,3.619,0,0,0-3.69,3.73,3.457,3.457,0,0,0,3.645,3.64,3.685,3.685,0,0,0,.045-7.37Z" />
    <path class="cls-1"
        d="M93.877,99.576H71.1V96.168H87.871c.021-.4.049-.7.049-1,0-2.768,0-5.536,0-8.305,0-2.51,1.051-3.559,3.572-3.563,4.16,0,8.32,0,12.546,0v5.909H93.877Z" />
    <path class="cls-1"
        d="M87.847,46.27H93.7V56.429h10.335V79.253h-3.385V62.4H99.231c-2.77,0-5.539.016-8.309,0a2.9,2.9,0,0,1-3.121-3c-.028-4.2-.01-8.393-.008-12.589C87.793,46.649,87.824,46.486,87.847,46.27Z" />
    <path class="cls-1"
        d="M83.75,46.3V49.69H66.9v1.05c0,2.826,0,5.652,0,8.478,0,2.109-1.078,3.286-3.151,3.305-4.2.038-8.394.012-12.591.01a2.846,2.846,0,0,1-.377-.055V56.636H60.91V46.3Z" />
    <path class="cls-1"
        d="M50.8,66.532h3.389v16.9h.99q4.236,0,8.471,0c2.229,0,3.375,1.128,3.379,3.327q.011,6,0,11.993v.8H61.136V89.428H50.8Z" />
</svg>