<svg id="Capa_1" data-name="Capa 1" xmlns="http://www.w3.org/2000/svg" viewBox="0 0 91.04 88.622"><defs><style>.cls-1{fill:#fff;}</style></defs><title>icono crear una cuenta </title><path class="cls-1" d="M12.024,40.549q0-12.55,0-25.1a4.3,4.3,0,0,1,3.138-4.294,4.853,4.853,0,0,1,1.31-.172q25.869-.013,51.738-.006a4.318,4.318,0,0,1,4.449,4.469q0,23.481-.008,46.96a1.181,1.181,0,0,0,.4.935c1.255,1.213,2.538,2.4,3.723,3.681,2.875,3.1,2.242,8.62-2.669,10a5.406,5.406,0,0,1-5.386-1.381c-1.708-1.6-3.353-3.268-4.99-4.941a1.872,1.872,0,0,0-1.48-.608q-22.815.024-45.63.017a4.389,4.389,0,0,1-4.6-4.547Q12.031,53.057,12.024,40.549Zm57.6,19.506.14-.086c.007-.121.018-.243.018-.364q0-22,0-44.01c0-1.231-.52-1.746-1.744-1.746H16.633c-1.2,0-1.732.529-1.732,1.718q0,24.975,0,49.952c0,1.179.521,1.7,1.7,1.7H60.147c-.171-.183-.267-.293-.37-.4Q54.037,61.13,48.3,55.434a2.234,2.234,0,0,1-.569-.891q-1.238-4.222-2.415-8.463a1.442,1.442,0,0,1,1.866-1.85c2.782.737,5.565,1.473,8.34,2.237a2.292,2.292,0,0,1,.95.545q6.191,6.063,12.351,12.155C69.108,59.447,69.36,59.758,69.626,60.055Zm-.277,12.384,4.336-4.32L54.6,49.2c-.159.15-.29.27-.417.394q-1.726,1.681-3.451,3.365c-.427.417-.427.417-.013.83q8.069,8.064,16.136,16.129C67.7,70.758,68.529,71.609,69.349,72.439Z"/><path class="cls-1" d="M42.308,36.935H25.193a1.481,1.481,0,0,1-1.549-.949,1.444,1.444,0,0,1,1.243-1.934c.1-.009.194-.005.291-.005H59.492a1.453,1.453,0,0,1,1.631,1.394,1.422,1.422,0,0,1-1.284,1.479,4.626,4.626,0,0,1-.54.015Z"/><path class="cls-1" d="M42.358,23.957q8.478,0,16.956,0a3.586,3.586,0,0,1,.7.04,1.431,1.431,0,0,1-.172,2.816c-.193.018-.388.017-.582.017H25.475c-.208,0-.416,0-.623-.017a1.426,1.426,0,0,1,.009-2.842c.193-.016.387-.015.581-.015Z"/><path class="cls-1" d="M32.212,47.024c-2.354,0-4.707,0-7.06,0a1.438,1.438,0,0,1-.388-2.848,3.876,3.876,0,0,1,.539-.024q6.934,0,13.87,0a2.665,2.665,0,0,1,.737.075,1.407,1.407,0,0,1,.987,1.581,1.385,1.385,0,0,1-1.335,1.2c-1.356.026-2.713.013-4.07.015C34.4,47.026,33.305,47.024,32.212,47.024Z"/></svg>