<svg id="Capa_1" data-name="Capa 1" xmlns="http://www.w3.org/2000/svg" viewBox="0 0 44.005 43.104"><defs><style>.cls-1{fill:#f5f5f5;}</style></defs><title>icono instagram</title><path class="cls-1" d="M22.194,40.058h-.923A2.98,2.98,0,0,0,20.91,40a18.432,18.432,0,0,1-7.7-2.015A18.7,18.7,0,0,1,5.02,30,18.423,18.423,0,0,1,2.9,18.857a18.592,18.592,0,0,1,6.838-12.5,18.367,18.367,0,0,1,9.88-4.173A18.534,18.534,0,0,1,30.872,4.417a18.7,18.7,0,0,1,8.108,8.741,18.531,18.531,0,0,1,1.533,10.529,18.553,18.553,0,0,1-5.289,10.676,18.486,18.486,0,0,1-10.015,5.324C24.215,39.871,23.2,39.938,22.194,40.058Zm-.475-9.4q2.976,0,5.951,0a3.377,3.377,0,0,0,3.655-3.647q0-5.973,0-11.948A3.376,3.376,0,0,0,27.7,11.429q-5.952,0-11.9,0a3.38,3.38,0,0,0-3.654,3.65q0,5.975,0,11.948a3.37,3.37,0,0,0,3.627,3.627Q18.744,30.658,21.719,30.654Z"/><path class="cls-1" d="M26.177,18.985c.964,0,1.885,0,2.806,0,.105,0,.21.018.367.032v.511q0,3.713,0,7.427c0,1.248-.487,1.74-1.72,1.74H15.82c-1.207,0-1.7-.5-1.7-1.711q0-3.736,0-7.473v-.491H17.26c-.688,2.868-.14,4.727,1.766,6.012a4.857,4.857,0,0,0,5.5-.064A4.928,4.928,0,0,0,26.177,18.985Z"/><path class="cls-1" d="M21.738,18.984c.553,0,1.107.021,1.659-.008a.717.717,0,0,1,.682.358,2.9,2.9,0,0,1-.418,3.809,2.868,2.868,0,0,1-3.864-.006,2.9,2.9,0,0,1-.405-3.811.72.72,0,0,1,.686-.349C20.63,19,21.184,18.984,21.738,18.984Z"/><path class="cls-1" d="M25.48,14.121h2.875v2.958H25.48Z"/></svg>