<svg id="Capa_1" data-name="Capa 1" xmlns="http://www.w3.org/2000/svg" xmlns:xlink="http://www.w3.org/1999/xlink" viewBox="0 0 428.333 106"><defs><style>.cls-1{fill:none;}.cls-17,.cls-2{fill:#242d41;}.cls-3{fill:#d66e4f;}.cls-4{fill:#cf6046;}.cls-5{fill:#b64746;}.cls-6{fill:#d6823c;}.cls-7{fill:#456885;}.cls-8{fill:#527c9e;}.cls-9{isolation:isolate;}.cls-10{clip-path:url(#clip-path);}.cls-11{fill:#456ca2;}.cls-12{fill:#43689d;}.cls-13{clip-path:url(#clip-path-2);}.cls-14{fill:#2f4284;}.cls-15{fill:#3e56ab;}.cls-16{fill:#d67360;}.cls-17{font-size:13.073px;font-family:Montserrat-MediumItalic, Montserrat;font-style:italic;letter-spacing:0.2em;}.cls-18{letter-spacing:0.168em;}.cls-19{letter-spacing:0.19em;}.cls-20{letter-spacing:0.155em;}.cls-21{letter-spacing:0.2em;}.cls-22{letter-spacing:0.19em;}.cls-23{letter-spacing:0.2em;}</style><clipPath id="clip-path"><path class="cls-1" d="M13.971,66.6l3.311,1.8a.291.291,0,0,0-.178-.03l-3.311-1.8A.291.291,0,0,1,13.971,66.6Z"/></clipPath><clipPath id="clip-path-2"><path class="cls-1" d="M16.7,69.005l-3.311-1.8c-.124-.253.143-.593.4-.63l3.311,1.8C16.843,68.412,16.576,68.752,16.7,69.005Z"/></clipPath></defs><title>logo </title><path class="cls-2" d="M89.705,34.653,87.4,46.324h21.739l-1.346,6.862h-21.8L83.548,65.563h25.395l-1.411,6.99H73.865l8.978-44.891h32.769l-1.41,6.991Z"/><path class="cls-3" d="M113.432,51.391h17.636l-1.347,6.668H112.15Z"/><path class="cls-2" d="M143.86,71.11a13.849,13.849,0,0,1-5.868-5.291,14.958,14.958,0,0,1-2.052-7.887,20.134,20.134,0,0,1,2.63-10.261,18.86,18.86,0,0,1,7.278-7.151,21.405,21.405,0,0,1,10.613-2.6,18.625,18.625,0,0,1,8.947,2.02,13.822,13.822,0,0,1,5.8,6l-6.862,3.527q-2.371-4.745-8.529-4.745a11.34,11.34,0,0,0-6.06,1.635,11.528,11.528,0,0,0-4.2,4.554,14,14,0,0,0-1.539,6.637,8.337,8.337,0,0,0,2.372,6.316,9.336,9.336,0,0,0,6.734,2.276,11.731,11.731,0,0,0,5.322-1.185,10.871,10.871,0,0,0,4.041-3.56l5.9,3.977a16.011,16.011,0,0,1-6.541,5.611A20.6,20.6,0,0,1,152.742,73,19.761,19.761,0,0,1,143.86,71.11Z"/><path class="cls-2" d="M189.328,39.014a24.3,24.3,0,0,1,7.727-1.091l-1.475,7.632a11.46,11.46,0,0,0-1.988-.193q-9.812,0-11.863,10.325l-3.4,16.866h-8.016l6.8-34.245h7.632l-.9,4.425A12.207,12.207,0,0,1,189.328,39.014Z"/><path class="cls-2" d="M202.763,38.308h8.016l-6.8,34.245h-8.016Zm2.372-6.957a4.276,4.276,0,0,1-1.347-3.175A4.914,4.914,0,0,1,205.3,24.52a5.4,5.4,0,0,1,3.945-1.474A4.885,4.885,0,0,1,212.7,24.3a4,4,0,0,1,1.347,3.046,5.147,5.147,0,0,1-1.507,3.848,5.4,5.4,0,0,1-3.944,1.475A4.751,4.751,0,0,1,205.135,31.351Z"/><path class="cls-2" d="M243.194,39.719a13.338,13.338,0,0,1,5.419,5.2A15.6,15.6,0,0,1,250.6,52.93a20.917,20.917,0,0,1-2.533,10.292,18.656,18.656,0,0,1-6.926,7.182,18.849,18.849,0,0,1-9.779,2.6,16.483,16.483,0,0,1-7.055-1.411,10.7,10.7,0,0,1-4.681-4.1l-3.463,17.507h-8.016l9.3-46.686h7.631l-.706,3.591a17.488,17.488,0,0,1,18.822-2.18Zm-6.413,24.786a11.542,11.542,0,0,0,4.2-4.553,14.011,14.011,0,0,0,1.539-6.638A8.344,8.344,0,0,0,240.148,47a9.25,9.25,0,0,0-6.669-2.276,11.335,11.335,0,0,0-6.06,1.635,11.538,11.538,0,0,0-4.2,4.554,14.01,14.01,0,0,0-1.539,6.637,8.338,8.338,0,0,0,2.373,6.316,9.238,9.238,0,0,0,6.669,2.276A11.339,11.339,0,0,0,236.781,64.505Z"/><path class="cls-2" d="M263.362,61.074a13.409,13.409,0,0,0-.128,1.475q0,3.848,4.04,3.847a7.82,7.82,0,0,0,4.489-1.346l1.411,5.9A15.306,15.306,0,0,1,264.9,73a10.2,10.2,0,0,1-7.118-2.437,8.62,8.62,0,0,1-2.694-6.734,13.717,13.717,0,0,1,.257-2.693l3.27-16.161h-5.579l1.282-6.412h5.58l1.539-7.824h8.016l-1.6,7.824h9.234L275.8,44.977h-9.235Z"/><path class="cls-2" d="M284.877,71.11a13.931,13.931,0,0,1-5.8-5.291,14.958,14.958,0,0,1-2.052-7.887,20.335,20.335,0,0,1,2.6-10.261,18.631,18.631,0,0,1,7.247-7.151,21.137,21.137,0,0,1,10.484-2.6,19.684,19.684,0,0,1,8.786,1.86,13.7,13.7,0,0,1,5.835,5.258,14.968,14.968,0,0,1,2.053,7.889A20.147,20.147,0,0,1,311.4,63.19a19.1,19.1,0,0,1-7.279,7.182A20.917,20.917,0,0,1,293.631,73,19.2,19.2,0,0,1,284.877,71.11ZM300.2,64.505a11.556,11.556,0,0,0,4.2-4.553,14.023,14.023,0,0,0,1.539-6.638A8.341,8.341,0,0,0,303.57,47a9.249,9.249,0,0,0-6.669-2.276,11.34,11.34,0,0,0-6.06,1.635,11.528,11.528,0,0,0-4.2,4.554,14,14,0,0,0-1.539,6.637,8.337,8.337,0,0,0,2.372,6.316,9.242,9.242,0,0,0,6.669,2.276A11.34,11.34,0,0,0,300.2,64.505Z"/><path class="cls-4" d="M349.421,39.078l-1.54,7.7h18.726L364.3,58.188H345.637l-2.886,14.365H327.617L336.6,27.662h36.489l-2.308,11.416Z"/><path class="cls-4" d="M404.957,50.236l12.055,22.317H400.66L395.08,61.01l-9.747,11.543H367.249l21.162-23.215-11.35-21.676h16.16l5.515,11.223,9.619-11.223h17.059Z"/><path class="cls-5" d="M56.475,64.376l-3.311-1.8-.015-.008a.469.469,0,0,0-.077-.028c-.005,0-.011,0-.016,0a.455.455,0,0,0-.166-.007.616.616,0,0,0-.169.052l-.014,0a.842.842,0,0,0-.124.072l0,0,3.311,1.8a.825.825,0,0,1,.143-.08.616.616,0,0,1,.169-.052.434.434,0,0,1,.166.008A.429.429,0,0,1,56.475,64.376Z"/><path class="cls-6" d="M56.2,64.332c.42-.059.674.41.314.879L31.181,98.667,34.654,79.42,55.889,64.464A.711.711,0,0,1,56.2,64.332Z"/><polygon class="cls-7" points="31.181 98.667 27.87 96.866 31.343 77.619 34.654 79.42 31.181 98.667"/><polygon class="cls-4" points="34.654 79.42 31.343 77.619 52.578 62.663 55.889 64.464 34.654 79.42"/><polygon class="cls-4" points="39.792 40.585 63.859 51.07 34.315 70.93 39.792 40.585"/><polygon class="cls-8" points="39.792 40.585 36.481 38.784 60.548 49.269 63.859 51.07 39.792 40.585"/><polygon class="cls-7" points="34.315 70.93 31.004 69.129 36.481 38.784 39.792 40.585 34.315 70.93"/><g class="cls-9"><g class="cls-10"><g class="cls-9"><path class="cls-11" d="M17.1,68.375l-3.311-1.8a.307.307,0,0,1,.117.006l3.311,1.8a.307.307,0,0,0-.117-.006"/><path class="cls-12" d="M17.221,68.381l-3.311-1.8a.352.352,0,0,1,.051.019l3.311,1.8a.352.352,0,0,0-.051-.019"/></g></g></g><polygon class="cls-4" points="31.181 98.667 27.87 96.866 13.389 67.204 16.7 69.005 31.181 98.667"/><g class="cls-9"><g class="cls-13"><polygon class="cls-5" points="13.971 66.604 13.961 66.599 17.272 68.4 17.282 68.405 13.971 66.604"/><path class="cls-5" d="M13.675,66.61a.566.566,0,0,0-.075.044.529.529,0,0,0-.059.047.59.59,0,0,0-.05.05.556.556,0,0,0-.042.054c-.013.018-.025.038-.036.057s-.021.044-.03.066a.346.346,0,0,0,.006.275l3.311,1.8a.348.348,0,0,1-.006-.276q.014-.033.03-.066c.011-.019.023-.039.036-.057a.556.556,0,0,1,.042-.054.59.59,0,0,1,.05-.05.529.529,0,0,1,.059-.047.468.468,0,0,1,.075-.043.394.394,0,0,1,.118-.037l-3.311-1.8A.433.433,0,0,0,13.675,66.61Z"/></g></g><path class="cls-3" d="M17.1,68.375a.281.281,0,0,1,.191.038L34.654,79.42,31.181,98.667,16.7,69.005C16.576,68.752,16.843,68.412,17.1,68.375Z"/><polygon class="cls-3" points="46.274 4.662 63.859 51.07 39.792 40.585 46.274 4.662"/><polygon class="cls-14" points="39.792 40.585 36.481 38.784 42.963 2.861 46.274 4.662 39.792 40.585"/><polygon class="cls-15" points="10.824 57.25 7.513 55.448 36.481 38.784 39.792 40.585 10.824 57.25"/><polygon class="cls-16" points="39.792 40.585 34.315 70.93 10.824 57.25 39.792 40.585"/><polygon class="cls-4" points="46.274 4.662 39.792 40.585 10.824 57.25 46.274 4.662"/><polygon class="cls-5" points="10.824 57.25 7.513 55.448 42.963 2.861 46.274 4.662 10.824 57.25"/><polygon class="cls-5" points="34.315 70.93 31.004 69.129 7.513 55.448 10.824 57.25 34.315 70.93"/><text class="cls-17" transform="translate(223.094 90.197)">CRI<tspan class="cls-18" x="30.853" y="0">P</tspan><tspan class="cls-19" x="42.488" y="0">T</tspan><tspan x="52.646" y="0">OS </tspan><tspan class="cls-20" x="83.107" y="0">P</tspan><tspan class="cls-21" x="94.573" y="0">ARA </tspan><tspan class="cls-22" x="137.192" y="0">T</tspan><tspan class="cls-23" x="147.35" y="0">ODOS</tspan></text></svg>