<svg id="Capa_1" data-name="Capa 1" xmlns="http://www.w3.org/2000/svg" viewBox="0 0 219.162 54.769"><defs><style>.cls-1{fill:#fff;}</style></defs><title>logo eth </title><path class="cls-1" d="M194.77,23.481a6.32,6.32,0,0,1,6-3.213c2.673.187,4.3,1.77,5.3,4.245.122-.222.212-.381.3-.542A7.125,7.125,0,0,1,209.178,21a5.936,5.936,0,0,1,8.243,2.441,7.205,7.205,0,0,1,.887,3.409c0,2.992,0,5.984,0,8.977a1.081,1.081,0,0,1-.109.508.538.538,0,0,1-.6.237.546.546,0,0,1-.488-.417,2.231,2.231,0,0,1-.048-.53q0-4.172,0-8.343a7.1,7.1,0,0,0-.6-2.89,4.744,4.744,0,0,0-8.074-1.1,8.392,8.392,0,0,0-1.7,4.045,16.107,16.107,0,0,0-.175,2.281c-.024,1.984-.008,3.968-.009,5.952a3.155,3.155,0,0,1-.018.487.6.6,0,0,1-.61.52.591.591,0,0,1-.628-.5,2.712,2.712,0,0,1-.021-.486q0-4.171,0-8.343a7.051,7.051,0,0,0-.572-2.8,4.694,4.694,0,0,0-5.11-2.9,5.048,5.048,0,0,0-4.4,3.616,10.579,10.579,0,0,0-.511,3.6q.011,3.464.015,6.928a1.422,1.422,0,0,1-.064.43.631.631,0,0,1-1.233-.129,2.774,2.774,0,0,1-.008-.341V21.515a2.977,2.977,0,0,1,.006-.341.664.664,0,0,1,.623-.636.611.611,0,0,1,.663.632c.031.584.013,1.17.015,1.756,0,.172,0,.345,0,.517Z"/><path class="cls-1" d="M46.815,29.213c.038.272.057.477.1.678a7.438,7.438,0,0,0,2.638,4.482,6.5,6.5,0,0,0,8.883-1.1c.129-.167.251-.34.387-.5a.643.643,0,0,1,.9-.2.627.627,0,0,1,.155.905,6.076,6.076,0,0,1-2,2.1,7.754,7.754,0,0,1-11.294-2.739,8.811,8.811,0,0,1,1.59-10.624,7.328,7.328,0,0,1,10.654.548,8.717,8.717,0,0,1,2.187,5.559c.024.594-.236.874-.838.884-.732.011-1.464,0-2.2,0H46.815Zm12.779-1.341a1.168,1.168,0,0,0,.015-.192,7.378,7.378,0,0,0-1.773-4.043,5.95,5.95,0,0,0-7.291-1.512,6.854,6.854,0,0,0-3.434,4.294c-.141.459-.214.939-.327,1.453Z"/><path class="cls-1" d="M109.477,29.213a7.4,7.4,0,0,0,.891,2.945,6.106,6.106,0,0,0,4.559,3.4,6.314,6.314,0,0,0,6.18-2.3c.143-.177.269-.368.42-.537a.629.629,0,0,1,.831-.152.585.585,0,0,1,.2.85,9.288,9.288,0,0,1-1.135,1.452A7.923,7.923,0,0,1,110.931,35a8.2,8.2,0,0,1-2.567-4.45,8.6,8.6,0,0,1,2.11-7.965,7.3,7.3,0,0,1,10.52-.322,8.659,8.659,0,0,1,2.677,6.092c.023.566-.24.834-.817.858-.13.006-.26,0-.39,0H109.477Zm.008-1.346h12.767a1.057,1.057,0,0,0,.015-.179,7.213,7.213,0,0,0-1.771-4.042,5.854,5.854,0,0,0-6.293-1.914,6.285,6.285,0,0,0-3.931,3.414A7.128,7.128,0,0,0,109.485,27.867Z"/><path class="cls-1" d="M148.214,29.213A7.651,7.651,0,0,0,150,33.455a5.742,5.742,0,0,0,3.541,2.077,6.385,6.385,0,0,0,6.256-2.219c.125-.149.238-.309.358-.463.311-.394.645-.492.958-.281.335.226.366.575.088,1.03a5.828,5.828,0,0,1-2,2.029,7.757,7.757,0,0,1-8.406.2,7.889,7.889,0,0,1-3.674-5.251,8.559,8.559,0,0,1,2.042-7.938,7.307,7.307,0,0,1,10.622-.338,8.606,8.606,0,0,1,2.628,6.062.717.717,0,0,1-.779.844c-.13.007-.26,0-.39,0H148.214ZM161,27.874a1.179,1.179,0,0,0,.015-.206,7.382,7.382,0,0,0-2.362-4.628,5.909,5.909,0,0,0-6.71-.908,7.017,7.017,0,0,0-3.618,5.051c-.046.216-.062.439-.1.691Z"/><path class="cls-1" d="M87.712,23.545l.271-.4a6.428,6.428,0,0,1,3.936-2.761,5.836,5.836,0,0,1,6.605,3.062,8.306,8.306,0,0,1,.949,3.942c.009,2.748,0,5.5,0,8.244a1.95,1.95,0,0,1-.045.483.606.606,0,0,1-.658.461.592.592,0,0,1-.572-.507,2.712,2.712,0,0,1-.021-.486c0-2.764,0-5.529,0-8.293a6.7,6.7,0,0,0-.852-3.365,4.6,4.6,0,0,0-4.847-2.362,5.328,5.328,0,0,0-4.548,3.945,8.766,8.766,0,0,0-.364,3.709,5.326,5.326,0,0,1,.028.535q0,2.926,0,5.854a1.886,1.886,0,0,1-.041.482.619.619,0,0,1-.692.484A.61.61,0,0,1,86.3,36a2.98,2.98,0,0,1-.008-.39V8.047a2.557,2.557,0,0,1,.015-.438.654.654,0,0,1,.646-.555.644.644,0,0,1,.617.53,2.788,2.788,0,0,1,.025.534q0,7.414,0,14.83v.569Z"/><path class="cls-1" d="M182.826,33.431c-.4.533-.757,1.1-1.2,1.594a5.8,5.8,0,0,1-8,.768,6.705,6.705,0,0,1-2.33-3.956,9.732,9.732,0,0,1-.206-1.933c-.021-2.749-.009-5.5-.009-8.247a3.78,3.78,0,0,1,.008-.439.641.641,0,0,1,.663-.582.618.618,0,0,1,.593.6c.014.145.007.293.007.439,0,2.635,0,5.27,0,7.905a8.04,8.04,0,0,0,.456,2.874,5.463,5.463,0,0,0,1.26,2.009,4.348,4.348,0,0,0,3.026,1.269,4.83,4.83,0,0,0,3.708-1.3,5.888,5.888,0,0,0,1.408-2.368,13.367,13.367,0,0,0,.669-4.074c.04-2.114.022-4.229.03-6.343a2.914,2.914,0,0,1,.011-.439.643.643,0,0,1,.633-.565.6.6,0,0,1,.624.508,1.665,1.665,0,0,1,.034.387q0,7.124,0,14.248a2.04,2.04,0,0,1-.01.293.649.649,0,0,1-.7.6.6.6,0,0,1-.591-.646c-.017-.618-.006-1.237-.006-1.855,0-.252,0-.5,0-.756Z"/><path class="cls-1" d="M72.5,21.842c-.226-.009-.384-.022-.543-.022q-1.317,0-2.635,0c-.114,0-.228.005-.342,0a.638.638,0,0,1-.07-1.274,2.444,2.444,0,0,1,.437-.027c.845,0,1.691,0,2.537,0h.587c.011-.212.027-.384.027-.556q0-2.2,0-4.391a2.114,2.114,0,0,1,.025-.437.647.647,0,0,1,.641-.5.618.618,0,0,1,.588.551,3.379,3.379,0,0,1,.011.439q0,2.147,0,4.294v.567c.226.011.4.028.572.028.911,0,1.822,0,2.733,0a2.247,2.247,0,0,1,.531.053.636.636,0,0,1-.055,1.234,2.1,2.1,0,0,1-.389.016H73.781c-.007.239-.018.443-.018.648q0,6.588,0,13.175a3.593,3.593,0,0,1-.011.487.621.621,0,0,1-.639.549.606.606,0,0,1-.61-.575,4.279,4.279,0,0,1-.006-.439q0-6.562,0-13.126Z"/><path class="cls-1" d="M133.983,24.048c.093-.129.185-.259.28-.388a7.436,7.436,0,0,1,3.912-2.919,5.394,5.394,0,0,1,1.392-.2.6.6,0,0,1,.649.764.612.612,0,0,1-.533.5c-.269.058-.544.094-.811.163a6.16,6.16,0,0,0-4.409,3.981,10.015,10.015,0,0,0-.6,3.683q.006,2.976,0,5.953a1.755,1.755,0,0,1-.08.57.6.6,0,0,1-.614.39.621.621,0,0,1-.564-.521,2.449,2.449,0,0,1-.026-.437q0-7.026,0-14.051a2.306,2.306,0,0,1,.034-.485.62.62,0,0,1,.669-.513.585.585,0,0,1,.576.608c.02.552.007,1.106.008,1.659v1.2Z"/><path class="cls-1" d="M1.031,28.318,17.1,1.547,33.19,28.361c-1.606.956-3.153,1.878-4.7,2.8C24.9,33.292,21.3,35.416,17.713,37.567a1.013,1.013,0,0,1-1.205.011q-7.482-4.466-14.985-8.9C1.374,28.593,1.242,28.476,1.031,28.318Zm15.7-24.5-.193-.029L2.369,27.4c.4-.144.59-.2.769-.281,4.34-1.98,8.674-3.974,13.024-5.933.551-.248.617-.6.616-1.115-.012-5.16-.006-10.321-.009-15.482C16.769,4.331,16.743,4.076,16.73,3.821ZM31.584,27.347l.117-.16L17.638,3.753c-.189.159-.212.264-.212.369,0,5.4.008,10.8-.016,16.2,0,.6.372.738.774.922l8.008,3.651Zm-14.864-5.7L2.2,28.289,16.72,36.9Zm.74,15.262L32,28.285,17.46,21.649Z"/><path class="cls-1" d="M32.965,31,17.1,53.437,1.229,31l.129-.139Q3.79,32.3,6.222,33.733c3.391,2.011,6.788,4.012,10.163,6.049a1.209,1.209,0,0,0,1.435-.012q7.175-4.29,14.375-8.534c.216-.128.443-.238.665-.356Zm-16.3,20.719a2.886,2.886,0,0,0,.108-.439c0-3.32.021-6.641-.022-9.961a1.352,1.352,0,0,0-.618-.921c-3.219-1.948-6.462-3.856-9.7-5.775q-1.4-.828-2.794-1.653l-.127.144ZM30.778,32.97a2.517,2.517,0,0,0-.4.09c-4.156,2.464-8.316,4.92-12.451,7.417a1.339,1.339,0,0,0-.5.984c-.038,3.173-.024,6.346-.02,9.52,0,.188.037.376.08.779Z"/></svg>