<svg id="Capa_1" data-name="Capa 1" xmlns="http://www.w3.org/2000/svg" viewBox="0 0 91.04 88.622">
    <defs>
        <style>
            .cls-1 {
                fill: #fff;
            }
        </style>
    </defs>
    <title>educate </title>
    <path class="cls-1"
        d="M7.664,68.586c.271-.386.516-.8.816-1.154a27.313,27.313,0,0,0,5.9-12.038.825.825,0,0,0-.206-.812,10.055,10.055,0,0,1-1.214-1.649,4.423,4.423,0,0,1,.956-5.83,1.449,1.449,0,0,0,.533-1.186,20.82,20.82,0,0,1,1.33-7.247c.287-.7.669-1.347,1.029-2.06-.1-.056-.232-.132-.367-.2-2.192-1.124-4.383-2.252-6.579-3.367a1.708,1.708,0,0,1-1.016-1.316,1.649,1.649,0,0,1,1.1-1.841q3.72-1.446,7.44-2.888Q31.395,21.564,45.4,16.125a1.924,1.924,0,0,1,1.477.05q11.971,4.671,23.946,9.33L82.2,29.933c.146.057.293.111.436.175a1.627,1.627,0,0,1,1,1.558,1.555,1.555,0,0,1-.991,1.515c-1.45.592-2.908,1.163-4.363,1.739q-9.928,3.925-19.856,7.849-5.818,2.3-11.638,4.594a1.858,1.858,0,0,1-1.438,0Q36.881,44,28.4,40.644a4.539,4.539,0,0,1-.675-.363,6.638,6.638,0,0,0-3.936-1.173,2.933,2.933,0,0,0-2.7,2.207,10.114,10.114,0,0,0-.376,3.967c0,.061.018.122.019.183a3.725,3.725,0,0,0,.729,2.178,4.87,4.87,0,0,1-.046,5.479,2.5,2.5,0,0,0-.359,1.706,37.482,37.482,0,0,1-.051,9.263,16.134,16.134,0,0,1-2.365,6.894,7.927,7.927,0,0,1-3.654,3.021,1.537,1.537,0,0,1-1.535-.159C11.779,72.7,10.1,71.578,8.445,70.4a4.583,4.583,0,0,1-.781-.984Zm6.77-36.918c.2.1.31.164.423.208Q30.177,37.891,45.5,43.909a1.419,1.419,0,0,0,1.13.009q14.766-5.858,29.541-11.689c.431-.171.86-.35,1.387-.565-.273-.114-.44-.187-.61-.253L64.691,26.64q-9.109-3.546-18.223-7.08a1.226,1.226,0,0,0-.8,0c-1.031.365-2.048.776-3.069,1.172L17.012,30.664C16.184,30.985,15.356,31.309,14.434,31.668Zm-2.787,37.01c.677.462,1.344.915,2.009,1.371.955.656.957.661,1.8-.209a8.858,8.858,0,0,0,2.108-4.3,31.126,31.126,0,0,0,.276-11.283,2.484,2.484,0,0,1,.541-2.282,2.635,2.635,0,0,0,.331-.478,1.7,1.7,0,0,0-.345-2.586,1.787,1.787,0,0,1-.624-1.446c.022-.739.019-1.48.084-2.214A14.763,14.763,0,0,1,20,38.4a3.688,3.688,0,0,0,.172-.355,2.151,2.151,0,0,0-1.186,1.19,19.93,19.93,0,0,0-.919,2.666,19.942,19.942,0,0,0-.509,5.358,1.885,1.885,0,0,1-.995,1.91,3.349,3.349,0,0,0-.6.425,1.148,1.148,0,0,0-.252,1.781,10.218,10.218,0,0,0,1.341,1.519,1.9,1.9,0,0,1,.625,1.793,29.952,29.952,0,0,1-4.554,11.863C12.661,67.262,12.158,67.943,11.647,68.678Z" />
    <path class="cls-1"
        d="M70.941,48.16c0,1.864-.02,3.729.01,5.592a3.723,3.723,0,0,1-.629,2.156,9.194,9.194,0,0,1-2.409,2.427,25.917,25.917,0,0,1-6.448,3.174c-5.93,2.169-12.04,2.591-18.226,2.3a39.011,39.011,0,0,1-10.073-1.7,21.221,21.221,0,0,1-8.97-5.234,1.781,1.781,0,0,1-.278-2.526,6.407,6.407,0,0,0,.908-2.609,2.963,2.963,0,0,0-1.04-2.675c-.185-.165-.388-.307-.582-.459a1.683,1.683,0,0,1-.673-1.411c.005-1.679,0-3.359,0-5.038,0-1.346.969-2.1,2.152-1.692,1.22.424,2.437.86,3.655,1.291q9.1,3.219,18.2,6.423a1.281,1.281,0,0,0,.808-.033q9.591-3.423,19.174-6.873c.748-.269,1.5-.539,2.247-.8,1.191-.416,2.17.36,2.174,1.73C70.945,44.186,70.941,46.173,70.941,48.16ZM25.659,44.3a7.986,7.986,0,0,1,0,.881,1.844,1.844,0,0,0,.717,1.937,1.079,1.079,0,0,1,.2.234,6.844,6.844,0,0,1,.932,6.722c-.121.383-.42.838-.319,1.128.117.341.571.556.9.8a22.84,22.84,0,0,0,9.35,3.806,45.9,45.9,0,0,0,10.309.749,39.3,39.3,0,0,0,7.645-.757,36.736,36.736,0,0,0,8.731-2.96,10.913,10.913,0,0,0,3.329-2.407,1.429,1.429,0,0,0,.374-1.028c-.017-2.835-.008-5.671-.01-8.506,0-.175-.015-.351-.024-.563-.164.047-.272.071-.376.108q-9.869,3.54-19.735,7.086a2.214,2.214,0,0,1-1.565,0q-9.6-3.409-19.2-6.8C26.51,44.6,26.11,44.459,25.659,44.3Z" />
</svg>