<svg id="Capa_1" data-name="Capa 1" xmlns="http://www.w3.org/2000/svg" viewBox="0 0 153.08 143.771"><defs><style>.cls-1{fill:#242d41;}.cls-2{fill:none;stroke:#242d41;stroke-linejoin:round;stroke-width:3px;}</style></defs><title>icono pago diario </title><path class="cls-1" d="M40.051,30.314h0a2.293,2.293,0,0,1-1.712,2.228c-3.893.99-8.141,1.407-9.863,3.712-1.89,2.531-1.856,6.845-1.8,10.984a2.309,2.309,0,0,0,2.309,2.274c29.038-.015,57.681-.3,86-.317a2.3,2.3,0,0,0,2.3-2.31c-.021-9.384-.547-12.345-11.156-13.7a2.309,2.309,0,0,1-2.022-2.12l-.034-.466a2.293,2.293,0,0,1,1.862-2.429c11.441-2.026,17.389,3.9,17.133,14.333-.477,19.472-.119,38.963-.145,58.446-.014,9.92-4.086,13.915-14.079,13.916q-37,0-74-.011c-9.4-.011-13.449-4.077-13.469-13.557-.041-19.326.365-38.661-.15-57.974-.313-11.74,5.755-16.848,16.877-15.289A2.289,2.289,0,0,1,40.051,30.314ZM29.263,55.453a2.307,2.307,0,0,0-2.3,2.307c0,14.782-.018,29.227.01,43.671.012,5.972,1.9,7.914,7.893,7.924q37.212.06,74.425,0c6.261-.008,7.991-1.838,8-8.262q.036-20.725,0-41.452c0-.608.019-1.217.032-1.836a2.305,2.305,0,0,0-2.3-2.353Z"/><path class="cls-1" d="M128.38,41.888c2.988.193,2.759,6.541,2.808,9.831q.411,27.485.1,54.98a16.76,16.76,0,0,1-16.681,16.583c-23.874.118-47.749.161-71.62-.087-3.192-.033-6.368-1.6-9.55-2.639a.973.973,0,0,1-.666-1.1h0a.973.973,0,0,1,.895-.8c1.2-.082,2.393-.185,3.589-.186q36.054-.023,72.106-.014c11.247-.005,17.179-5.862,17.207-17.126.047-18.988.105-37.584.1-56.572,0-.671,0-2.683,1.688-2.87Z"/><rect class="cls-1" x="52.394" y="28.148" width="39.388" height="4.964" rx="2.482" ry="2.482"/><path class="cls-2" d="M53.067,87.522v13.231H38.346V87.522Z"/><path class="cls-2" d="M79.507,87.53v13.175H64.813V87.53Z"/><path class="cls-2" d="M106.048,87.674V100.7H91.272V87.674Z"/><path class="cls-2" d="M38.231,76.8V63.74H52.949V76.8Z"/><path class="cls-2" d="M79.554,63.858V76.822h-14.8V63.858Z"/><path class="cls-2" d="M105.9,76.951H91.267V63.707H105.9Z"/><rect class="cls-1" x="44.19" y="20.622" width="4.694" height="18.777" rx="2.347" ry="2.347"/><rect class="cls-1" x="96.497" y="20.622" width="4.694" height="18.777" rx="2.347" ry="2.347"/></svg>