<svg id="Capa_1" data-name="Capa 1" xmlns="http://www.w3.org/2000/svg" viewBox="0 0 153.08 143.771"><defs><style>.cls-1{fill:#242d41;}</style></defs><title>icono educacion  </title><path class="cls-1" d="M20.245,69.606V88.149c.072.043.089.061.108.063,1.53.2,1.53.2,1.53,1.774,0,.909-.026,1.819.009,2.727.026.669-.145,1.154-.936,1.275.2.985.379,1.934.579,2.878q1.688,7.993,3.384,15.986c.456,2.141-.645,3.54-2.819,3.543q-4.512.008-9.022,0c-2.17-.006-3.294-1.334-2.856-3.449,1.168-5.651,2.371-11.3,3.561-16.942.137-.654.274-1.309.421-2.009-.688-.239-.755-.775-.735-1.4.035-1.037,0-2.077.01-3.115.008-1.053.159-1.2,1.187-1.223.126,0,.252-.027.466-.051v-.774c0-6.51-.008-13.019.013-19.529a.939.939,0,0,0-.66-1C11.1,65.364,7.729,63.8,4.349,62.248a3.065,3.065,0,0,1,.1-5.767Q19.526,50.19,34.6,43.876q16.484-6.888,32.971-13.765c2.374-.991,4.75-1.974,7.116-2.982a3.544,3.544,0,0,1,2.891-.04q8.967,3.765,17.937,7.524,8.883,3.713,17.776,7.4c4.428,1.846,28.764,12.025,34.69,14.5a3.058,3.058,0,0,1,.091,5.713q-12.9,5.934-25.812,11.852a1.2,1.2,0,0,0-.832,1.292c.028,8.483.018,16.965.017,25.447a3.084,3.084,0,0,1-2.621,3.414c-6.937,1.74-13.856,3.558-20.825,5.163a94.118,94.118,0,0,1-23.724,2.687,99.268,99.268,0,0,1-15.9-1.849c-7.5-1.431-14.865-3.432-22.253-5.332-.984-.252-1.97-.5-2.947-.773a2.936,2.936,0,0,1-2.237-2.909c-.017-.692,0-1.385,0-2.078q0-11.944.012-23.89a1.015,1.015,0,0,0-.712-1.1c-3.157-1.413-6.292-2.875-9.435-4.318C20.647,69.757,20.489,69.7,20.245,69.606ZM94.079,81.5l47.856-22.023c-1.6-.676-3.068-1.3-4.536-1.91q-7.7-3.215-15.4-6.423c-1.915-.8-3.826-1.606-5.739-2.406q-11.635-4.865-23.27-9.727-8.106-3.386-16.219-6.751a1.509,1.509,0,0,0-1.033-.059q-11.9,4.892-23.776,9.835c-1.955.813-3.876,1.7-5.829,2.52Q32.193,50.382,18.248,56.19c-2.551,1.065-5.1,2.141-7.724,3.244a1.909,1.909,0,0,0,.232.182c2.354,1.091,4.705,2.186,7.067,3.258a1.727,1.727,0,0,0,.818.1c3.362-.26,6.723-.538,10.085-.8,5.152-.408,10.3-.8,15.455-1.219,4.009-.323,8.015-.677,12.024-1,3.985-.324,7.973-.622,11.957-.964a1.894,1.894,0,0,0,.906-.49c.483-.393.881-.9,1.389-1.253a11.012,11.012,0,0,1,11.275-.129,6.857,6.857,0,0,1,1.115.884c2.039,2.057,1.675,4.746-.863,6.5A10.952,10.952,0,0,1,70,64.212a1.335,1.335,0,0,0-.817-.235c-1.165.071-2.325.2-3.488.3q-8.665.685-17.331,1.365-8.019.64-16.035,1.3c-1.5.122-2.99.25-4.685.392.32.178.457.266.6.334q7.5,3.468,15.01,6.932,16.2,7.45,32.412,14.873a1.378,1.378,0,0,0,1.018.009M36.072,76.858c-.019.278-.042.464-.042.65,0,7.183,0,14.366-.018,21.55,0,.525.225.645.653.743,7.832,1.8,15.652,3.649,23.5,5.388a76.484,76.484,0,0,0,14.388,1.845,66.3,66.3,0,0,0,15.978-1.528c8.362-1.814,16.689-3.782,25.038-5.655.658-.147.793-.45.791-1.05q-.024-9.7-.011-19.408V76.862c-.312.128-.51.2-.7.288-6.265,2.878-33.44,15.31-35.061,16.122-.966.483-1.977.873-2.948,1.346a3.3,3.3,0,0,1-2.993-.021c-6.653-3.068-31.822-14.652-34.923-16.08C38.53,77.969,37.335,77.432,36.072,76.858Z"/></svg>