<svg id="Capa_1" data-name="Capa 1" xmlns="http://www.w3.org/2000/svg" viewBox="0 0 153.08 143.771"><defs><style>.cls-1{fill:#242d41;}</style></defs><title>icono rentabilidad</title><path class="cls-1" d="M115.805,88.066c-.545,1.177-1.054,2.385-1.652,3.546A42.469,42.469,0,0,1,99.3,108.029a41.533,41.533,0,0,1-10.14,4.785c-.172.054-6.268,1.5-6.591,1.545a44.248,44.248,0,0,1-9.208.374,42.439,42.439,0,0,1-13.039-2.941c-.284-.113-1.721-.738-1.877-.822-1.827-.977-3.7-1.882-5.447-2.99a42.353,42.353,0,0,1-18.47-26.654A42.5,42.5,0,0,1,81.975,30.531a42.659,42.659,0,0,1,31.309,21.221c.511.9.977,1.828,1.431,2.759.09.184.922,2.112,1.012,2.334a41.254,41.254,0,0,1,2.783,11.282,43.278,43.278,0,0,1-.541,12.491A49.37,49.37,0,0,1,115.805,88.066ZM76.746,110.807c1.905-.21,3.822-.348,5.714-.641a37.132,37.132,0,0,0,16.145-6.66,38.092,38.092,0,0,0,13.919-43.434c-.051-.15-.887-2.348-1.048-2.712A38.5,38.5,0,0,0,97.925,41a38.5,38.5,0,0,0-49.9,5.5A37.924,37.924,0,0,0,38.906,81.82,38.48,38.48,0,0,0,65.169,109.1,42.7,42.7,0,0,0,76.746,110.807Z"/><path class="cls-1" d="M99.267,122.015l-4.319-6.333,16.926-.422c-2.24,5.158-4.45,10.249-6.69,15.41l-2.531-3.7a12.139,12.139,0,0,1-.751-1.119c-.217-.408-.448-.4-.828-.221a57.383,57.383,0,0,1-12.447,4.191,58.766,58.766,0,0,1-16.395,1.2,58.063,58.063,0,0,1-13.385-2.445,59.135,59.135,0,0,1-39-38.55c-.015-.048-.588-2.014-.822-2.9A57.376,57.376,0,0,1,17.16,72.511a50.636,50.636,0,0,1,.866-9.906c.4-2.032.9-4.045,1.356-6.065.033-.149.092-.292.159-.5l3.936,1.139c-.222.87-.444,1.7-.645,2.532a51.959,51.959,0,0,0-1.3,17.35,64.286,64.286,0,0,0,1.12,7.32,53.153,53.153,0,0,0,10.4,21.794,55.789,55.789,0,0,0,15.366,13.376c.6.356.7.4,1.235.762C65.945,128.7,82.419,129.234,99.267,122.015Z"/><path class="cls-1" d="M53.309,21.977l4.319,6.332L40.7,28.732c2.24-5.158,4.45-10.25,6.69-15.41l2.531,3.7a12.261,12.261,0,0,1,.751,1.118c.217.409.448.4.828.222a57.33,57.33,0,0,1,12.447-4.191,58.766,58.766,0,0,1,16.395-1.2A58.01,58.01,0,0,1,93.729,15.41a59.13,59.13,0,0,1,39,38.55c.015.048.588,2.014.822,2.9a57.389,57.389,0,0,1,1.865,14.619,50.642,50.642,0,0,1-.866,9.906c-.4,2.032-.9,4.044-1.356,6.065-.033.149-.092.291-.159.5l-3.936-1.14c.222-.869.444-1.7.645-2.531a51.961,51.961,0,0,0,1.3-17.35,64.286,64.286,0,0,0-1.12-7.32,53.157,53.157,0,0,0-10.4-21.795A55.769,55.769,0,0,0,104.155,24.44c-.6-.356-.7-.4-1.235-.762C86.631,15.29,70.157,14.757,53.309,21.977Z"/><path class="cls-1" d="M92.273,81.155a32.042,32.042,0,0,0-.8-3.186,15.05,15.05,0,0,0-2.678-4.53,29.729,29.729,0,0,0-7.486-5.928c-2-1.222-4-2.467-5.955-3.764a4.638,4.638,0,0,1-1.829-2.2,2.185,2.185,0,0,1,1.266-3.048,6.032,6.032,0,0,1,1.943-.165A2.2,2.2,0,0,1,79,60.346a21.958,21.958,0,0,1,.2,2.732c.034.714.016.716.707.716q5.63,0,11.259,0c.1,0,.233.036.306-.012.129-.086.318-.222.321-.34a20.8,20.8,0,0,0-1.142-8.113,14.04,14.04,0,0,0-8.6-8.148.578.578,0,0,1-.477-.662c.017-1.47-.01-2.94.016-4.409.008-.46-.14-.582-.59-.579-3.287.018-6.573.01-9.86.012-.166,0-.332.022-.545.036v.552c0,1.47-.007,2.941.011,4.411a.583.583,0,0,1-.464.662c-5.451,1.988-8.614,5.815-9.221,11.635A14.646,14.646,0,0,0,64.576,70.45a29.688,29.688,0,0,0,6.473,5.227c2.22,1.433,4.428,2.886,6.607,4.38a5,5,0,0,1,1.871,2.368,2.913,2.913,0,0,1-1.928,4.03,6.935,6.935,0,0,1-2.161.109,2.857,2.857,0,0,1-2.819-2.74,22.755,22.755,0,0,1-.156-2.79c-.008-.432-.151-.542-.575-.54-3.806.017-7.611.01-11.417.011H59.8c.1,1.682.123,3.291.309,4.881a15.159,15.159,0,0,0,3.092,7.7,13.65,13.65,0,0,0,6.868,4.7.646.646,0,0,1,.538.76c-.025,1.435-.007,2.87,0,4.305,0,.169.015.338.023.522a2.344,2.344,0,0,0,.333.053q5.086,0,10.172.007c.375,0,.462-.163.459-.5-.013-1.453.007-2.906-.013-4.359a.593.593,0,0,1,.5-.688,14.488,14.488,0,0,0,6.019-3.538C91.761,90.671,92.886,86.182,92.273,81.155Zm-4.061,3.889a9.963,9.963,0,0,1-5.322,8.041A15.12,15.12,0,0,1,77.9,94.577c-.377.059-.487.209-.474.572.026.708.011,1.418.011,2.128,0,.651,0,1.3,0,1.983H74.767c0-1.407-.018-2.787.011-4.166.008-.41-.145-.547-.515-.593-.427-.053-.851-.141-1.275-.223a10.084,10.084,0,0,1-8.508-7.953c-.132-.528-.208-1.07-.324-1.677,1.441,0,2.787-.01,4.132.019.116,0,.285.258.33.423a7.423,7.423,0,0,0,2.27,3.874,8.264,8.264,0,0,0,6.375,1.727,6.94,6.94,0,0,0,3.447-1.136,8.3,8.3,0,0,0,2.549-2.931,7.749,7.749,0,0,0-1.593-8.466,24.969,24.969,0,0,0-5.6-4.253,51.1,51.1,0,0,1-6.729-4.562,11.516,11.516,0,0,1-4.357-8.287c-.245-4.531,2.008-8.495,6.678-9.992,1-.32,2.031-.524,3.126-.8V45.7h2.62c.01.187.024.338.025.49,0,1.245.014,2.491,0,3.736,0,.324.1.467.418.516,1.8.279,7.312,1.316,9.04,6.513l.635,2.663c-.279.014-.463.031-.647.031-1.089,0-2.18-.022-3.269.014-.405.013-.528-.144-.619-.5a6.189,6.189,0,0,0-3.659-4.422,8.279,8.279,0,0,0-4.275-.527c-5.689.683-6.831,6-5.155,9.41a9.124,9.124,0,0,0,3.163,3.577c2.195,1.469,4.463,2.83,6.712,4.218A26.618,26.618,0,0,1,84.9,75.277,13.19,13.19,0,0,1,88.339,83.2C88.3,83.841,88.284,84.446,88.212,85.044Z"/><path class="cls-1" d="M97.609,75.116V69.831h5.363v5.285Z"/><path class="cls-1" d="M54.7,75.131h-5.31V69.826H54.7Z"/></svg>