<svg id="Capa_1" data-name="Capa 1" xmlns="http://www.w3.org/2000/svg" viewBox="0 0 219.162 54.769"><defs><style>.cls-1{fill:none;stroke:#fff;stroke-miterlimit:10;}</style></defs><title>logo btc </title><path class="cls-1" d="M35.778,27.058c.847-.35,1.355-.523,1.83-.761,3.247-1.63,3.8-5.7.84-7.792-1.589-1.121-1.882-2.179-1.322-3.814a3.045,3.045,0,0,0-.038-1.011l-3.146-.572L33.07,16.42l-2.021-.5.454-3.266-3.277-.621-.881,3.247-5.2-.85L21.683,17.2c2.034.249,2.292,1.309,1.944,2.913-.688,3.17-1.309,6.359-1.813,9.563-.272,1.731-.677,3.058-2.972,2.519l-.452,2.725,5.129,1.051-.454,3.347,3.343.61.763-3.336,2.069.528-.454,3.251,3.351.578a10.576,10.576,0,0,1,.571-2.332,2.532,2.532,0,0,1,1.354-1.327c2.621-.53,4.584-1.782,5.116-4.52C39.689,30.145,38.372,28.355,35.778,27.058Z"/><path class="cls-1" d="M63.062,50.016c-4-.819-6.283-3.367-5.922-7.43A118.984,118.984,0,0,1,59.1,30.82c1.155-6.034,2.444-12.042,3.582-18.078.224-1.187.677-1.588,1.845-1.546,2.01.073,4.025.02,6.294.02-1.023,5.04-1.993,9.824-3.077,15.169,2.8-2.692,5.619-3.92,8.967-3.646,3.981.325,6.8,3.21,7.181,7.476.849,9.406-5.168,19.124-15.279,19.982C68.286,50.225,63.781,50.163,63.062,50.016Zm1.78-9.537c.241,3.224,1.925,4.607,4.73,3.682a6.48,6.48,0,0,0,1.459-.7c3.107-1.989,5.479-7.9,4.635-11.5-.612-2.611-2.992-3.854-5.268-2.446a8.537,8.537,0,0,0-3.235,3.468A60.073,60.073,0,0,0,64.842,40.479Z"/><path class="cls-1" d="M153.371,50.484c-9.177-2.611-11.976-7.654-9.323-16.8a15.387,15.387,0,0,1,18.677-10.445,9.466,9.466,0,0,1,7.217,8.162c1.122,8.171-3.12,16.305-11.6,18.416-1.1.274-2.231.446-3.348.665ZM151.29,38.64c-.054,3.055.993,5,3.026,5.6a4.934,4.934,0,0,0,5.726-3.152,26.281,26.281,0,0,0,1.933-7.738c.248-2.561-.993-4.066-2.821-4.612a4.6,4.6,0,0,0-5.246,2.163A30.677,30.677,0,0,0,151.29,38.64Z"/><path class="cls-1" d="M214.309,32.2q-1.609,8.343-3.22,16.687c-.038.2-.095.391-.175.717h-7.708c.653-3.557,1.319-7.035,1.923-10.524a53.1,53.1,0,0,0,.959-6.816,3.549,3.549,0,0,0-1.287-2.856,4.11,4.11,0,0,0-3.343.356c-2.537,1.527-3.562,4.194-4.17,6.933-.949,4.274-1.718,8.587-2.572,12.928h-7.724c1.609-8.819,3.193-17.5,4.792-26.264h6.771c-.121,1.324-.23,2.526-.374,4.111,2.486-2.652,5.059-4.557,8.6-4.742C210.586,22.534,214.809,23.047,214.309,32.2Z"/><path class="cls-1" d="M107.164,50.075c-3.134-.865-4.719-2.886-4.313-6.149.5-4.02,1.305-8,1.981-12,.135-.8.279-1.595.453-2.592L102.065,29l1.02-5.658,3.222-.169a2.12,2.12,0,0,0,.268-.434c.426-1.685.323-4.26,1.369-4.872,2.1-1.229,4.831-1.387,7.563-2.051-.455,2.618-.853,4.912-1.283,7.4h5.535c-.354,1.89-.583,3.6-1.055,5.237-.1.358-1.072.633-1.655.659-4.012.173-4.033.144-4.81,4.085q-.687,3.479-1.246,6.983c-.461,2.917.039,3.462,3.016,3.493.328,0,.656.049,1.135.087-.269,1.816-.47,3.55-.822,5.252-.081.389-.634.8-1.062.97A33.408,33.408,0,0,1,107.164,50.075Z"/><path class="cls-1" d="M127.868,49.869a9.749,9.749,0,0,1-7.714-8.6,16.526,16.526,0,0,1,15.04-18.394c2.369-.151,4.764.11,7.6.2l-1.96,6.347c-.574-.123-.956-.207-1.339-.287a9.264,9.264,0,0,0-11.261,10.067c.268,3.012,2.158,4.843,5.213,4.776a47.26,47.26,0,0,0,5.275-.711,43.613,43.613,0,0,1-.07,4.931c-.056.494-.881,1.143-1.464,1.292A43,43,0,0,1,127.868,49.869Z"/><path class="cls-1" d="M185.393,23.254c-1.638,8.613-3.209,16.961-4.856,25.294a1.776,1.776,0,0,1-1.241,1.124c-2.146.118-4.3.053-6.725.053.657-3.473,1.277-6.753,1.9-10.032.954-5.036,1.879-10.078,2.908-15.1a1.947,1.947,0,0,1,1.291-1.28C180.814,23.177,182.974,23.254,185.393,23.254Z"/><path class="cls-1" d="M91.189,23.323H99L93.994,49.617H86.2C87.873,40.787,89.521,32.1,91.189,23.323Z"/><path class="cls-1" d="M183.177,11.776a3.7,3.7,0,0,1,3.873,3.766,4.49,4.49,0,0,1-4.584,4.4,3.75,3.75,0,0,1-3.765-3.695A4.424,4.424,0,0,1,183.177,11.776Z"/><path class="cls-1" d="M96.872,11.785a3.572,3.572,0,0,1,3.733,3.873,4.345,4.345,0,0,1-4.494,4.277,3.626,3.626,0,0,1-3.732-3.907A4.319,4.319,0,0,1,96.872,11.785Z"/><path class="cls-1" d="M27.673,27.135c1.573.375,3.093.641,4.545,1.112a2.175,2.175,0,0,1,1.672,2.808c-1.081,2.992-8.081,3.992-6.758-1.733C27.282,28.674,27.449,28.03,27.673,27.135Z"/><path class="cls-1" d="M28.089,24.307,29.1,19.071A24.522,24.522,0,0,1,33.6,20.258,2.893,2.893,0,0,1,35.041,22.5a2.762,2.762,0,0,1-1.73,2.017A27.985,27.985,0,0,1,28.089,24.307Z"/><circle class="cls-1" cx="29.809" cy="26.047" r="23"/></svg>