<svg id="Capa_1" data-name="Capa 1" xmlns="http://www.w3.org/2000/svg" viewBox="0 0 219.162 54.769"><defs><style>.cls-1{fill:none;}.cls-2{fill:#fff;}</style></defs><title>logo economista </title><path class="cls-1" d="M208.1,30.469c-2.4.521-3.037,1.673-2.662,5.006.159,1.416.665,2.609,2.267,2.46,2.482-.232,2.428-2.269,2.56-4.089.013-.18,0-.361,0-.8C210.055,31.976,210.926,29.856,208.1,30.469Z"/><path class="cls-1" d="M123.193,25.52a2.781,2.781,0,0,0-5.531.2q-.132,4.934,0,9.872a2.446,2.446,0,0,0,2.626,2.573,2.519,2.519,0,0,0,2.959-2.513c.124-1.636.027-3.288.027-4.934l.19,0C123.386,28.982,123.434,27.231,123.193,25.52Z"/><path class="cls-1" d="M79.638,23.055a2.663,2.663,0,0,0-2.7,2.863c-.094,3.184-.076,6.375-.014,9.561a2.531,2.531,0,0,0,2.775,2.7c1.842.066,2.685-.983,2.882-2.612.186-1.532.184-3.086.274-4.784-.089-1.58-.077-3.321-.316-5.027A2.758,2.758,0,0,0,79.638,23.055Z"/><path class="cls-2" d="M159.862,34.989c-.014-2.562.048-5.125-.021-7.684-.091-3.375-1.989-5.224-5.332-5.322a6.623,6.623,0,0,0-4.8,1.658c-.435.387-.857,1.132-1.588.418-3.328-3.25-6.694-2.427-10.031,0-.949-2.125-4.659-2.6-7.36-1.037,2.285,1.46,2.472,13.819-.1,15.78h8.819c-.735-.769-1.536-1.251-1.5-2.427.086-2.741,0-5.49.132-8.228a4.708,4.708,0,0,1,1.3-3.246c.729-.707,1.542-1.425,2.644-1.134,1.278.338,1.168,1.515,1.183,2.495.042,2.835.019,5.671.02,8.507,0,1.506.26,3.111-1.509,3.968h8.711a2.841,2.841,0,0,1-1.524-2.814c.063-2.56.023-5.122.02-7.684a5.057,5.057,0,0,1,1.01-3.076c.741-1,1.694-1.766,3.027-1.345,1.221.386,1.147,1.53,1.154,2.531.02,2.836-.048,5.674.03,8.508.042,1.544-.068,2.946-2.242,4.022h9.411C159.551,37.948,159.869,36.4,159.862,34.989Z"/><path class="cls-2" d="M41.484,38.081c-1.711-.03-2.551-.58-2.5-2.383.065-2.284-.047-4.574.027-6.858.036-1.092-.518-2.639,1.141-2.978,1.732-.355,2.915.642,3.775,2.123.447.771.042,2.016,1.364,2.539V20.071c-1.264.524-.926,1.53-1.244,2.217a3.179,3.179,0,0,1-3.455,2.126c-1.91-.206-1.528-1.722-1.6-2.944-.044-.729-.009-1.463-.009-2.194,0-5.233,1.777-6.479,6.8-4.837a5.365,5.365,0,0,1,3.267,3.45c.242.576.026,1.57,1.47,1.529,0-1.363-.037-2.714.009-4.061.059-1.718-.686-2.507-2.44-2.494-5.579.043-11.158.022-16.737.046-.42,0-.946-.016-1.03.619,2.439,1.175,2.452,1.175,2.454,4.078,0,5.58-.076,11.16.022,16.738.036,2.033-.157,3.709-2.832,4.182.595.347.818.59,1.042.591,6.216.041,12.431.074,18.647.062.979,0,1.859-.436,1.894-1.578.067-2.143.395-4.311-.393-7.082C48.762,36.926,46.986,38.176,41.484,38.081Z"/><path class="cls-2" d="M108.322,35.258c.048-2.56.026-5.122,0-7.683-.037-4.121-2.454-6.109-6.568-5.546a10.042,10.042,0,0,0-4.121,2.021c-1.12-2.1-4.778-2.6-7.636-1.068,2.125,1.835,2.391,13.143.258,15.837h8.818c-.739-.707-1.542-1.113-1.553-1.542-.106-3.81-.805-7.665.521-11.4a3.219,3.219,0,0,1,1.01-1.271,2.491,2.491,0,0,1,2.482-.813c1.071.388,1.078,1.4,1.089,2.306.034,2.927.02,5.854.02,8.781,0,1.418.213,2.911-1.293,3.939h8.678C108.415,37.979,108.3,36.7,108.322,35.258Z"/><path class="cls-2" d="M215.891,34.544c.028-2.011.01-4.023-.013-6.035-.042-3.6-1.127-5.123-4.315-6.1-3.734-1.148-8.143-.33-9.726,1.8a2.845,2.845,0,0,0-.3,3.33,2.364,2.364,0,0,0,2.64,1.024c2.148-.338,2.422-1.966.73-4.8,1.705-.9,3.283-1.028,4.556.13,1.189,1.083,1.09,2.8.732,4.135-.467,1.739-2.277.992-3.535,1.233-.358.068-.727.078-1.086.146-4.456.849-6.6,2.967-6.048,5.976.525,2.879,4.054,4.672,7.977,4.022a3.663,3.663,0,0,0,1.544-.516c1.2-.877,2.131-.679,3.429.047,2.769,1.549,5.6-.034,5.821-3.236C216.182,37.709,215.863,36.479,215.891,34.544Zm-5.627-.7c-.132,1.82-.078,3.857-2.56,4.089-1.6.149-2.108-1.044-2.267-2.46-.375-3.333.259-4.485,2.662-5.006,2.827-.613,1.956,1.507,2.167,2.574C210.266,33.485,210.277,33.666,210.264,33.846Z"/><path class="cls-2" d="M79.561,21.868A9.373,9.373,0,0,0,70.723,30.7a8.793,8.793,0,0,0,8.994,8.726,9.1,9.1,0,0,0,9.08-8.491C88.917,26.287,84.367,21.82,79.561,21.868Zm3.018,13.7c-.2,1.629-1.04,2.678-2.882,2.612a2.531,2.531,0,0,1-2.775-2.7c-.062-3.186-.08-6.377.014-9.561a2.663,2.663,0,0,1,2.7-2.863,2.758,2.758,0,0,1,2.9,2.706c.239,1.706.227,3.447.316,5.027C82.763,32.486,82.765,34.04,82.579,35.572Z"/><path class="cls-2" d="M120.641,21.889a9.4,9.4,0,0,0-9.286,8.681c-.151,4.675,4,8.816,8.922,8.9a9.092,9.092,0,0,0,9.293-8.55C129.685,26.323,125.41,22,120.641,21.889Zm2.6,13.764a2.519,2.519,0,0,1-2.959,2.513,2.446,2.446,0,0,1-2.626-2.573q-.123-4.934,0-9.872a2.781,2.781,0,0,1,5.531-.2c.241,1.711.193,3.462.27,5.2l-.19,0C123.273,32.365,123.37,34.017,123.246,35.653Z"/><path class="cls-2" d="M16.585,34.613c-1.115,2.2-2.691,3.7-5.369,3.416-2.227-.235-3.07-2.039-3.043-5.577.019-2.376,1.457-2.331,3.1-2.3,1.55.03,3.1-.056,4.653,0,1.858.068,2.134-.856,1.77-2.425a7.329,7.329,0,0,0-6-5.652c-4.282-.669-8.178,2.06-9.371,6.564A8.862,8.862,0,0,0,7.342,38.8c5.159,2.115,10.267-.551,10.59-5.772C16.974,33.389,16.863,34.064,16.585,34.613Zm-9.5-6.841s.549-3.295,3.294-3.295,3.844,3.295,3.844,3.295Z"/><path class="cls-2" d="M26.972,35.38Q27,25.227,26.954,15.074c-.006-.988.413-2.38-1.4-2.374-1.9.006-3.8,0-5.7,0l-.605.791c2.3.828,1.97,2.542,1.968,4.154-.006,5.854-.023,11.708.01,17.562.007,1.329-.036,2.58-1.646,3.512h8.95C26.918,37.972,26.969,36.7,26.972,35.38Z"/><path class="cls-2" d="M67.149,36.5a4.935,4.935,0,0,1-5.257,1.45c-1.851-.533-2.059-2.173-2.085-3.77q-.063-3.842.018-7.684c.046-2.013,1.027-3.475,3.144-3.359,2.319.127,1.244,1.887,1.169,3.133-.107,1.805.79,2.805,2.587,2.776,1.836-.029,2.571-1.156,2.472-2.906A3.9,3.9,0,0,0,66.969,22.9c-3.33-1.914-8.01-.948-10.986,2.252a8.431,8.431,0,0,0-.92,10.61A8.942,8.942,0,0,0,65.569,38.94a5.333,5.333,0,0,0,3.706-4.974C67.869,34.6,67.829,35.782,67.149,36.5Z"/><path class="cls-2" d="M183.014,28.232a28.089,28.089,0,0,0-3.769-.659c-1.245-.2-2.394-.516-2.413-2.083-.019-1.5,1.035-2.115,2.275-2.3,2.032-.3,3.475.714,4.61,2.336.428.611.384,1.952,1.45,1.652.952-.267.361-1.439.574-2.241-.313-.816.474-2.522-.867-2.428-1.9.133-3.572-.739-5.406-.595a6.161,6.161,0,0,0-5.543,5.549c-.278,2.741,1.187,4.631,4.282,5.448,1.234.326,2.507.507,3.738.844s2.258.92,1.989,2.47c-.25,1.442-1.284,1.853-2.6,1.94-2.682.178-4.2-1.381-5.43-3.476-.32-.546-.711-1.753-1.482-1.072-1.028.909-.425,2.409-.465,3.654-.023.706.053,1.926.843,1.744,2.528-.581,4.869.878,7.346.4a5.715,5.715,0,0,0,4.665-5.369C187.03,30.856,185.952,29.118,183.014,28.232Z"/><path class="cls-2" d="M195.593,17.564c-.027-.706.407-1.669-.923-2.156-.934,3.35-2.122,6.539-7.052,7.176,2.59,1.3,2.236,2.984,2.276,4.57.08,3.092-.3,6.209.474,9.264.559,2.212,2.089,3.072,4.265,3.03,2.42-.046,3.727-.935,4.284-2.943-2.9,1.3-3.26,1.059-3.293-2.306-.02-2.006-.026-4.013,0-6.019.03-2.312-.858-5.181,3.735-4.9C195.715,21.409,195.738,21.408,195.593,17.564Z"/><path class="cls-2" d="M170.336,34.917c.006-3.473.009-6.946-.029-10.419-.011-.973.12-2.243-1.338-2.248-1.97-.006-3.978-.28-6.3.43,2.449,2.14,2.684,13.6.492,16.1a56.026,56.026,0,0,0,9.371-.019C170.1,37.809,170.333,36.332,170.336,34.917Z"/><path class="cls-2" d="M167.659,18.614c1.826-.247,3.056-1.285,2.956-3.21a3.027,3.027,0,1,0-6.043.349C164.657,17.592,165.757,18.525,167.659,18.614Z"/></svg>