<svg id="Capa_1" data-name="Capa 1" xmlns="http://www.w3.org/2000/svg" xmlns:xlink="http://www.w3.org/1999/xlink" viewBox="0 0 269.329 67.46"><defs><style>.cls-1{fill:none;}.cls-17,.cls-2{fill:#fff;}.cls-3{fill:#d66e4f;}.cls-4{fill:#cf6046;}.cls-5{fill:#b64746;}.cls-6{fill:#d6823c;}.cls-7{fill:#456885;}.cls-8{fill:#527c9e;}.cls-9{isolation:isolate;}.cls-10{clip-path:url(#clip-path);}.cls-11{fill:#456ca2;}.cls-12{fill:#43689d;}.cls-13{clip-path:url(#clip-path-2);}.cls-14{fill:#2f4284;}.cls-15{fill:#3e56ab;}.cls-16{fill:#d67360;}.cls-17{font-size:8.297px;font-family:Montserrat-MediumItalic, Montserrat;font-style:italic;letter-spacing:0.2em;}.cls-18{letter-spacing:0.168em;}.cls-19{letter-spacing:0.19em;}.cls-20{letter-spacing:0.155em;}</style><clipPath id="clip-path"><path class="cls-1" d="M5.754,44.455l2.1,1.143a.184.184,0,0,0-.113-.019l-2.1-1.143A.188.188,0,0,1,5.754,44.455Z"/></clipPath><clipPath id="clip-path-2"><path class="cls-1" d="M7.486,45.979l-2.1-1.143c-.079-.161.091-.377.256-.4l2.1,1.143C7.576,45.6,7.407,45.818,7.486,45.979Z"/></clipPath></defs><title>logo footer</title><path class="cls-2" d="M53.82,24.177l-1.465,7.407h13.8L65.3,35.939H51.459l-1.546,7.855H66.03l-.895,4.437H43.767l5.7-28.491h20.8l-.9,4.437Z"/><path class="cls-3" d="M68.879,34.8H80.072l-.855,4.232H68.065Z"/><path class="cls-2" d="M88.191,47.315a8.79,8.79,0,0,1-3.724-3.358,9.495,9.495,0,0,1-1.3-5.006,12.78,12.78,0,0,1,1.669-6.512A11.979,11.979,0,0,1,89.453,27.9a13.586,13.586,0,0,1,6.736-1.648,11.811,11.811,0,0,1,5.678,1.282,8.767,8.767,0,0,1,3.683,3.806L101.2,33.578q-1.506-3.011-5.413-3.012A7.2,7.2,0,0,0,91.936,31.6a7.324,7.324,0,0,0-2.666,2.89,8.9,8.9,0,0,0-.977,4.213A5.294,5.294,0,0,0,89.8,42.716a5.927,5.927,0,0,0,4.274,1.444,7.448,7.448,0,0,0,3.378-.752,6.9,6.9,0,0,0,2.564-2.259l3.744,2.523a10.154,10.154,0,0,1-4.151,3.562,13.086,13.086,0,0,1-5.78,1.282A12.549,12.549,0,0,1,88.191,47.315Z"/><path class="cls-2" d="M117.049,26.944a15.441,15.441,0,0,1,4.9-.692l-.936,4.844a7.269,7.269,0,0,0-1.262-.123q-6.226,0-7.529,6.553l-2.157,10.7h-5.088L109.3,26.5h4.843l-.569,2.809A7.745,7.745,0,0,1,117.049,26.944Z"/><path class="cls-2" d="M125.575,26.5h5.088l-4.314,21.735h-5.088Zm1.506-4.415a2.714,2.714,0,0,1-.855-2.015,3.116,3.116,0,0,1,.957-2.32,3.425,3.425,0,0,1,2.5-.936,3.1,3.1,0,0,1,2.2.793,2.539,2.539,0,0,1,.855,1.933,3.268,3.268,0,0,1-.957,2.443,3.426,3.426,0,0,1-2.5.936A3.017,3.017,0,0,1,127.081,22.081Z"/><path class="cls-2" d="M151.237,27.392a8.477,8.477,0,0,1,3.439,3.3,9.908,9.908,0,0,1,1.262,5.087,13.288,13.288,0,0,1-1.608,6.533,11.843,11.843,0,0,1-4.4,4.558,11.965,11.965,0,0,1-6.207,1.649,10.462,10.462,0,0,1-4.477-.9,6.782,6.782,0,0,1-2.971-2.6l-2.2,11.111h-5.088L134.9,26.5h4.843l-.447,2.279a11.1,11.1,0,0,1,11.946-1.383Zm-4.071,15.731a7.327,7.327,0,0,0,2.667-2.89,8.9,8.9,0,0,0,.976-4.213,5.3,5.3,0,0,0-1.506-4.009,5.872,5.872,0,0,0-4.233-1.445,7.2,7.2,0,0,0-3.846,1.038,7.331,7.331,0,0,0-2.666,2.89,8.9,8.9,0,0,0-.977,4.213,5.294,5.294,0,0,0,1.506,4.009,5.867,5.867,0,0,0,4.233,1.444A7.2,7.2,0,0,0,147.166,43.123Z"/><path class="cls-2" d="M164.037,40.945a8.48,8.48,0,0,0-.082.937q0,2.441,2.564,2.441a4.959,4.959,0,0,0,2.849-.854l.9,3.744a9.713,9.713,0,0,1-5.251,1.3,6.474,6.474,0,0,1-4.517-1.547,5.471,5.471,0,0,1-1.71-4.274,8.671,8.671,0,0,1,.163-1.709l2.075-10.257h-3.541l.814-4.07h3.541l.977-4.966H167.9l-1.017,4.966h5.86l-.814,4.07h-5.861Z"/><path class="cls-2" d="M177.692,47.315a8.842,8.842,0,0,1-3.684-3.358,9.495,9.495,0,0,1-1.3-5.006,12.907,12.907,0,0,1,1.648-6.512,11.835,11.835,0,0,1,4.6-4.539,13.414,13.414,0,0,1,6.654-1.648,12.5,12.5,0,0,1,5.576,1.18,8.7,8.7,0,0,1,3.7,3.338,9.5,9.5,0,0,1,1.3,5.006,12.784,12.784,0,0,1-1.668,6.512,12.129,12.129,0,0,1-4.62,4.559,13.279,13.279,0,0,1-6.655,1.669A12.19,12.19,0,0,1,177.692,47.315Zm9.727-4.192a7.317,7.317,0,0,0,2.666-2.89,8.894,8.894,0,0,0,.977-4.213,5.3,5.3,0,0,0-1.506-4.009,5.872,5.872,0,0,0-4.233-1.445,7.2,7.2,0,0,0-3.846,1.038,7.324,7.324,0,0,0-2.666,2.89,8.9,8.9,0,0,0-.977,4.213,5.294,5.294,0,0,0,1.506,4.009,5.867,5.867,0,0,0,4.233,1.444A7.2,7.2,0,0,0,187.419,43.123Z"/><path class="cls-4" d="M218.656,26.985l-.977,4.884h11.885L228.1,39.114H216.255l-1.832,9.117h-9.6l5.7-28.491h23.159l-1.466,7.245Z"/><path class="cls-4" d="M253.9,34.067l7.652,14.164H251.176l-3.541-7.326-6.186,7.326H229.971L243.4,33.5,236.2,19.74h10.257l3.5,7.123,6.106-7.123h10.826Z"/><path class="cls-5" d="M32.73,43.041l-2.1-1.143-.009-.005a.409.409,0,0,0-.049-.018h-.01a.281.281,0,0,0-.105-.005.386.386,0,0,0-.107.033l-.01,0a.576.576,0,0,0-.078.045l0,0,2.1,1.143a.493.493,0,0,1,.091-.051.435.435,0,0,1,.107-.033.309.309,0,0,1,.106.005A.26.26,0,0,1,32.73,43.041Z"/><path class="cls-6" d="M32.556,43.013c.267-.038.428.26.2.558L16.676,64.805l2.205-12.216L32.358,43.1A.456.456,0,0,1,32.556,43.013Z"/><polygon class="cls-7" points="16.676 64.805 14.575 63.661 16.779 51.446 18.881 52.589 16.676 64.805"/><polygon class="cls-4" points="18.881 52.589 16.779 51.446 30.256 41.954 32.358 43.097 18.881 52.589"/><polygon class="cls-4" points="22.142 27.941 37.416 34.596 18.665 47.201 22.142 27.941"/><polygon class="cls-8" points="22.142 27.941 20.04 26.798 35.315 33.453 37.416 34.596 22.142 27.941"/><polygon class="cls-7" points="18.665 47.201 16.564 46.058 20.04 26.798 22.142 27.941 18.665 47.201"/><g class="cls-9"><g class="cls-10"><g class="cls-9"><path class="cls-11" d="M7.742,45.579l-2.1-1.143a.208.208,0,0,1,.075,0l2.1,1.143a.2.2,0,0,0-.074,0"/><path class="cls-12" d="M7.816,45.583l-2.1-1.143a.175.175,0,0,1,.032.012l2.1,1.143-.033-.012"/></g></g></g><polygon class="cls-4" points="16.676 64.805 14.575 63.661 5.384 44.836 7.486 45.979 16.676 64.805"/><g class="cls-9"><g class="cls-13"><polygon class="cls-5" points="5.754 44.455 5.747 44.452 7.849 45.595 7.855 45.598 5.754 44.455"/><path class="cls-5" d="M5.566,44.459a.4.4,0,0,0-.048.028.347.347,0,0,0-.037.03.242.242,0,0,0-.032.032.224.224,0,0,0-.027.034.267.267,0,0,0-.022.036.226.226,0,0,0-.019.042.217.217,0,0,0,0,.175l2.1,1.143a.222.222,0,0,1,0-.175.389.389,0,0,1,.019-.042c.007-.012.014-.025.022-.036l.027-.034a.322.322,0,0,1,.032-.032.357.357,0,0,1,.038-.03.324.324,0,0,1,.047-.028.308.308,0,0,1,.075-.023l-2.1-1.143A.288.288,0,0,0,5.566,44.459Z"/></g></g><path class="cls-3" d="M7.742,45.579a.178.178,0,0,1,.121.024l11.018,6.986L16.676,64.805,7.486,45.979C7.407,45.818,7.576,45.6,7.742,45.579Z"/><polygon class="cls-3" points="26.256 5.142 37.416 34.596 22.142 27.941 26.256 5.142"/><polygon class="cls-14" points="22.142 27.941 20.04 26.798 24.155 3.999 26.256 5.142 22.142 27.941"/><polygon class="cls-15" points="3.756 38.518 1.655 37.375 20.04 26.798 22.142 27.941 3.756 38.518"/><polygon class="cls-16" points="22.142 27.941 18.665 47.201 3.756 38.518 22.142 27.941"/><polygon class="cls-4" points="26.256 5.142 22.142 27.941 3.756 38.518 26.256 5.142"/><polygon class="cls-5" points="3.756 38.518 1.655 37.375 24.155 3.999 26.256 5.142 3.756 38.518"/><polygon class="cls-5" points="18.665 47.201 16.564 46.058 1.655 37.375 3.756 38.518 18.665 47.201"/><text class="cls-17" transform="translate(138.479 59.43)">CRI<tspan class="cls-18" x="19.582" y="0">P</tspan><tspan class="cls-19" x="26.966" y="0">T</tspan><tspan x="33.414" y="0">OS </tspan><tspan class="cls-20" x="52.746" y="0">P</tspan><tspan x="60.023" y="0">ARA </tspan><tspan class="cls-19" x="87.072" y="0">T</tspan><tspan x="93.52" y="0">ODOS</tspan></text></svg>