<svg id="Capa_1" data-name="Capa 1" xmlns="http://www.w3.org/2000/svg" viewBox="0 0 91.04 88.622"><defs><style>.cls-1{fill:#fff;}</style></defs><title>realiza el deposito </title><path class="cls-1" d="M13.667,70.432V30.4c1.483-3.782,2.932-4.76,7.05-4.76,4.059,0,8.118.03,12.177-.025a5.674,5.674,0,0,0,2.384-.56c6.994-3.494,13.96-7.042,20.938-10.569,1.6-.809,2.064-.662,2.871.92,1.565,3.066,3.147,6.123,4.646,9.221a1.568,1.568,0,0,0,1.706,1.032c1.818-.063,3.639-.025,5.459-.017,1.751.007,2.152.4,2.153,2.118q.007,8.187,0,16.376V45.67a4.083,4.083,0,0,1,3.608,2.644V60.073a4.055,4.055,0,0,1-3.516,2.881,2.036,2.036,0,0,0-.077.352q-.01,4.55-.014,9.1c0,2.5-.192,2.691-2.7,2.691q-24.846,0-49.693,0C16.6,75.1,15.164,74.135,13.667,70.432ZM70.18,45.725V42.583H68.393q-20.016,0-40.031,0a3.334,3.334,0,0,1-1.512-.093c-.481-.277-1.085-.873-1.076-1.318s.665-.952,1.149-1.251c.307-.189.819-.048,1.239-.048H70.206V36.685H68.389q-23.374,0-46.749-.015c-1.7,0-3.4-.217-5.077-.331V65.952H58.206c.419,0,.954-.149,1.234.052.5.361,1.13.908,1.179,1.428.037.395-.683.959-1.177,1.27-.3.191-.818.053-1.238.053H16.538c-.116,2.476,1,3.579,3.494,3.579q24.424.007,48.848,0h1.306V62.873H68.555q-8.889,0-17.776,0c-1.8,0-2.146-.33-2.148-2.093q-.012-6.508,0-13.017c0-1.767.264-2.03,2.04-2.033q8.958-.011,17.915,0ZM51.493,48.547V60.071c7.19,0,14.271-.006,21.351.007.944,0,1.024-.559,1.02-1.288-.014-2.844-.081-5.691.026-8.53.055-1.447-.45-1.831-1.835-1.818-6.386.059-12.774.025-19.161.029C52.442,48.472,51.99,48.519,51.493,48.547ZM24.148,33.813a12.854,12.854,0,0,0,8.347-1.408c5.767-3.126,11.684-5.973,17.529-8.956,1.116-.569,1.981-.591,2.725.606a3.866,3.866,0,0,0,4.3,1.882,1.743,1.743,0,0,1,2.106,1.152c.835,1.768,1.757,3.5,2.643,5.24.97,1.911,1.128,1.978,3.446,1.387L56.92,17.224Zm26.628-7.629L35.66,33.843H59.441c-.81-1.612-1.514-3.069-2.284-4.492a1.161,1.161,0,0,0-.83-.542A7.2,7.2,0,0,1,50.776,26.184ZM28.043,28.732l-.071-.259c-3,0-6.007-.062-9.007.03a2.592,2.592,0,0,0-2.4,2.046,2.437,2.437,0,0,0,.994,2.706,1.158,1.158,0,0,0,.961.24C21.711,31.937,24.874,30.328,28.043,28.732Zm42.161,5.1V28.524H65.743c.744,1.484,1.5,2.811,2.082,4.209A1.679,1.679,0,0,0,70.2,33.831Z"/><path class="cls-1" d="M65.158,67.649c-.491.364-.946.951-1.483,1.04a1.1,1.1,0,0,1-1.34-1.323c.106-.528.762-1.279,1.217-1.312.512-.038,1.076.617,1.618.971Z"/><path class="cls-1" d="M24.322,41.466c-.495.363-.951.941-1.493,1.039a1.079,1.079,0,0,1-1.335-1.32,1.918,1.918,0,0,1,1.288-1.225c.462-.06,1.013.572,1.525.9Z"/><path class="cls-1" d="M58.371,59.53A5.255,5.255,0,1,1,63.6,54.305,5.2,5.2,0,0,1,58.371,59.53Zm-.01-7.761a2.531,2.531,0,0,0-2.485,2.48,2.432,2.432,0,0,0,2.415,2.506,2.55,2.55,0,0,0,2.593-2.5A2.629,2.629,0,0,0,58.361,51.769Z"/></svg>