<svg id="Capa_1" data-name="Capa 1" xmlns="http://www.w3.org/2000/svg" viewBox="0 0 91.04 88.622"><defs><style>.cls-1{fill:#fff;}</style></defs><title>rentabilidad</title><path class="cls-1" d="M11.664,33.323c.843-1.963,2.326-2.653,4.452-2.646,16.564.052,33.128.026,49.691.031,3.365,0,4.457,1.114,4.459,4.526q.006,13.047,0,26.1c0,3.359-1.154,4.518-4.5,4.519-16.408,0-32.815-.026-49.223.036-2.185.008-3.839-.559-4.879-2.536ZM40.948,63.547q12.432,0,24.864,0c1.959,0,2.16-.209,2.161-2.155q.006-13.135,0-26.271c0-1.975-.135-2.1-2.168-2.1q-24.786,0-49.572,0c-2.076,0-2.281.186-2.282,2.188q-.009,13.057,0,26.115c0,1.951.286,2.223,2.29,2.225Q28.6,63.552,40.948,63.547Z"/><path class="cls-1" d="M45.9,26.014q12.353,0,24.7,0c3.185,0,4.34,1.154,4.341,4.326q.009,14.305,0,28.612c0,.365.111.808-.055,1.076-.26.423-.725,1.02-1.079,1-.392-.017-.859-.585-1.1-1.021-.178-.321-.05-.815-.051-1.231q0-13.995,0-27.988c0-2.461-.021-2.483-2.423-2.483H21.459c-.417,0-.834,0-1.251,0-.845-.006-1.57-.351-1.342-1.254a1.824,1.824,0,0,1,1.4-.992c5.211-.073,10.423-.047,15.635-.048Z"/><path class="cls-1" d="M50.6,21.323q12.354,0,24.706,0c3.183,0,4.319,1.15,4.32,4.335q0,14.229,0,28.459a3.179,3.179,0,0,1-.052,1.236c-.188.409-.644,1.016-.926.986a1.917,1.917,0,0,1-1.234-.882c-.209-.349-.07-.913-.07-1.381q0-14.073,0-28.146c0-2.234-.077-2.316-2.271-2.316q-24.471,0-48.942,0c-.365,0-.791.12-1.082-.027-.563-.284-1.382-.638-1.5-1.11-.235-.955.605-1.153,1.407-1.152.834,0,1.668,0,2.5,0Q39.032,21.322,50.6,21.323Z"/><path class="cls-1" d="M40.934,35.413a12.865,12.865,0,1,1-12.8,12.938A12.85,12.85,0,0,1,40.934,35.413ZM30.431,48.33A10.58,10.58,0,1,0,40.99,37.7,10.574,10.574,0,0,0,30.431,48.33Z"/><path class="cls-1" d="M18.643,58.863a24.685,24.685,0,0,1,3.4.049c.458.066.84.658,1.256,1.011-.428.407-.822,1.112-1.29,1.165a35.971,35.971,0,0,1-4.195.057,1.286,1.286,0,0,1-1.454-1.429,36.666,36.666,0,0,1,.053-4.2c.053-.475.745-.879,1.145-1.316.362.462.952.886,1.036,1.394A21.071,21.071,0,0,1,18.643,58.863Z"/><path class="cls-1" d="M63.282,58.866a20.24,20.24,0,0,1,.05-3.266c.09-.513.7-.936,1.08-1.4.385.439,1.052.848,1.1,1.324a39.018,39.018,0,0,1,.052,4.191,1.267,1.267,0,0,1-1.438,1.43,36.785,36.785,0,0,1-4.19-.058c-.479-.055-.883-.756-1.322-1.162.43-.354.826-.943,1.3-1.012A24.161,24.161,0,0,1,63.282,58.866Z"/><path class="cls-1" d="M18.636,37.7a24.578,24.578,0,0,1-.047,3.361c-.069.478-.645.882-.991,1.32-.413-.438-1.129-.843-1.181-1.321a19.9,19.9,0,0,1,0-4.35,1.8,1.8,0,0,1,1.213-1.226,23.233,23.233,0,0,1,4.506-.005c.42.038.781.713,1.17,1.1-.41.375-.781,1-1.237,1.075A23.912,23.912,0,0,1,18.636,37.7Z"/><path class="cls-1" d="M63.283,37.7a19.5,19.5,0,0,1-3.353-.056c-.493-.092-.877-.77-1.311-1.183.436-.348.848-.953,1.311-1,1.442-.132,2.9-.051,4.356-.05.925,0,1.286.525,1.283,1.39a39.692,39.692,0,0,1-.055,4.2c-.054.493-.714.919-1.1,1.376-.378-.475-.991-.909-1.083-1.435A19.7,19.7,0,0,1,63.283,37.7Z"/><path class="cls-1" d="M42.178,42.334c.567.037,1.084-.08,1.367.125a2.087,2.087,0,0,1,.872,1.257c.027.276-.6.8-1.007.894-.694.157-1.49-.085-2.16.117-.539.163-.953.735-1.422,1.125.431.411.809,1.089,1.3,1.185a3.7,3.7,0,0,1,3.28,2.905,3.432,3.432,0,0,1-1.71,3.711,1.682,1.682,0,0,0-.567,1.13c-.066.845-.179,1.746-1.2,1.57-.446-.076-.762-.985-1.1-1.537a2,2,0,0,1-.114-.646c-.334-.037-.7.024-.928-.125a11.125,11.125,0,0,1-1.231-1.074,5.3,5.3,0,0,1,1.329-1.15c.493-.2,1.178.1,1.686-.084a7.43,7.43,0,0,0,1.595-1.076c-.487-.436-.912-1.125-1.473-1.263-2.21-.545-3.359-1.853-3.116-3.917a2.782,2.782,0,0,1,.5-1.438c.844-.976,2.073-1.67,1.92-3.269-.017-.174.724-.607,1.085-.577a1.53,1.53,0,0,1,.946.8A3.949,3.949,0,0,1,42.178,42.334Z"/></svg>